<?xml version="1.0" encoding="UTF-8"?>
<svg version="1.1" xmlns="http://www.w3.org/2000/svg" width="1883" height="2000">
<path d="M0 0 C621.39 0 1242.78 0 1883 0 C1883 660 1883 1320 1883 2000 C1261.61 2000 640.22 2000 0 2000 C0 1340 0 680 0 0 Z " fill="#151515" transform="translate(0,0)"/>
<path d="M0 0 C523.71 0 1047.42 0 1587 0 C1587 307.23 1587 614.46 1587 931 C1063.29 931 539.58 931 0 931 C0 623.77 0 316.54 0 0 Z " fill="#000000" transform="translate(0,1069)"/>
<path d="M0 0 C69.3 0 138.6 0 210 0 C210 21.78 210 43.56 210 66 C345.63 66 481.26 66 621 66 C621 44.22 621 22.44 621 0 C679.08 0 737.16 0 797 0 C797 21.78 797 43.56 797 66 C812.84 66 828.68 66 845 66 C845 176.55 845 287.1 845 401 C889.55 401 934.1 401 980 401 C980 470.63 980 540.26 980 612 C932.81 612 885.62 612 837 612 C837 632.46 837 652.92 837 674 C831.72 674 826.44 674 821 674 C821 708.32 821 742.64 821 778 C767.21 778 713.42 778 658 778 C658 743.68 658 709.36 658 674 C517.75 674 377.5 674 233 674 C233 709.97 233 745.94 233 783 C175.91 783 118.82 783 60 783 C60 747.03 60 711.06 60 674 C-16.89 674 -93.78 674 -173 674 C-173 648.92 -173 623.84 -173 598 C-215.57 598 -258.14 598 -302 598 C-302 607.24 -302 616.48 -302 626 C-327.74 626 -353.48 626 -380 626 C-380 657.68 -380 689.36 -380 722 C-345.68 722 -311.36 722 -276 722 C-276 708.47 -276 694.94 -276 681 C-255.21 681 -234.42 681 -213 681 C-213 716.31 -213 751.62 -213 788 C-290.55 788 -368.1 788 -448 788 C-448 626.63 -448 465.26 -448 299 C-376.39 299 -304.78 299 -231 299 C-231 222.11 -231 145.22 -231 66 C-154.77 66 -78.54 66 0 66 C0 44.22 0 22.44 0 0 Z " fill="#FFFFFF" transform="translate(659,69)"/>
<path d="M0 0 C40.59 0 81.18 0 123 0 C123 367.62 123 735.24 123 1114 C82.41 1114 41.82 1114 0 1114 C0 806.77 0 499.54 0 183 C-523.71 183 -1047.42 183 -1587 183 C-1587 135.15 -1587 87.3 -1587 38 C-1063.29 38 -539.58 38 0 38 C0 25.46 0 12.92 0 0 Z " fill="#1E1E1E" transform="translate(1587,886)"/>
<path d="M0 0 C36.96 0 73.92 0 112 0 C112 340.56 112 681.12 112 1032 C112.66 1032.33 113.32 1032.66 114 1033 C76.38 1033 38.76 1033 0 1033 C0 692.11 0 351.22 0 0 Z " fill="#171717" transform="translate(1587,967)"/>
<path d="M0 0 C140.25 0 280.5 0 425 0 C425 34.32 425 68.64 425 104 C422.36 104 419.72 104 417 104 C417 119.18 417 134.36 417 150 C477.06 150 537.12 150 599 150 C599 147.69 599 145.38 599 143 C630.68 143 662.36 143 695 143 C695 155.54 695 168.08 695 181 C171.29 181 -352.42 181 -892 181 C-892 168.46 -892 155.92 -892 143 C-659.68 143 -427.36 143 -188 143 C-188 150.26 -188 157.52 -188 165 C-113.75 165 -39.5 165 37 165 C37 146.52 37 128.04 37 109 C24.79 109 12.58 109 0 109 C0 73.03 0 37.06 0 0 Z " fill="#151515" transform="translate(892,743)"/>
<path d="M0 0 C100.32 0 200.64 0 304 0 C304 61.38 304 122.76 304 186 C203.68 186 103.36 186 0 186 C0 124.62 0 63.24 0 0 Z " fill="#4D4B4A" transform="translate(650,521)"/>
<path d="M0 0 C232.32 0 464.64 0 704 0 C704 7.26 704 14.52 704 22 C778.25 22 852.5 22 929 22 C929 14.74 929 7.48 929 0 C1054.4 0 1179.8 0 1309 0 C1309 2.31 1309 4.62 1309 7 C1369.06 7 1429.12 7 1491 7 C1491 4.69 1491 2.38 1491 0 C1522.68 0 1554.36 0 1587 0 C1587 12.54 1587 25.08 1587 38 C1063.29 38 539.58 38 0 38 C0 25.46 0 12.92 0 0 Z " fill="#000000" transform="translate(0,886)"/>
<path d="M0 0 C67.98 0 135.96 0 206 0 C206 76.23 206 152.46 206 231 C138.02 231 70.04 231 0 231 C0 154.77 0 78.54 0 0 Z " fill="#FF5A13" transform="translate(1227,504)"/>
<path d="M0 0 C40.59 0 81.18 0 123 0 C123 367.62 123 735.24 123 1114 C114 1114 114 1114 112 1113 C112 772.44 112 431.88 112 81 C75.04 81 38.08 81 0 81 C0 54.27 0 27.54 0 0 Z " fill="#242424" transform="translate(1587,886)"/>
<path d="M0 0 C74.25 0 148.5 0 225 0 C225 18.48 225 36.96 225 56 C150.75 56 76.5 56 0 56 C0 37.52 0 19.04 0 0 Z " fill="#5F5F5F" transform="translate(704,852)"/>
<path d="M0 0 C99.33 0 198.66 0 301 0 C301 11.88 301 23.76 301 36 C201.67 36 102.34 36 0 36 C0 24.12 0 12.24 0 0 Z " fill="#000000" transform="translate(667,444)"/>
<path d="M0 0 C60.06 0 120.12 0 182 0 C182 15.18 182 30.36 182 46 C121.94 46 61.88 46 0 46 C0 30.82 0 15.64 0 0 Z " fill="#5F5F5F" transform="translate(1309,847)"/>
<path d="M0 0 C63.69 0 127.38 0 193 0 C193 11.55 193 23.1 193 35 C129.31 35 65.62 35 0 35 C0 23.45 0 11.9 0 0 Z " fill="#000000" transform="translate(1278,431)"/>
</svg>
