<svg xmlns="http://www.w3.org/2000/svg" viewBox="0 0 1080 1080" xml:space="preserve">
  <path fill="#FDA532" d="M674.966 820.011s.258.22.629.518c1.366.693 2.362 1.088 3.358 1.483l.57.496c.63.359.954.45 1.278.543-5.93 2.687-11.766 5.612-17.812 8.009-10.26 4.069-20.653 7.805-31.658 11.932l11.576 7.035-.309 1.132c-3.904 0-7.812-.123-11.711.022-13.62.504-27.25.907-40.848 1.793-3.52.23-6.879 2.323-10.41 3.125-3.818.867-7.834 2.052-11.62 1.67-26.48-2.668-52.915-5.773-79.384-8.561-4.544-.48-9.242.37-13.757-.233-9.178-1.226-18.292-2.954-27.408-4.614-6.191-1.128-12.29-3.119-18.518-3.616-11.868-.948-22.462-5.425-33.211-9.966-16.36-6.91-32.996-13.168-49.435-19.897-4.718-1.93-9.197-4.467-13.704-6.878-.884-.472-2.123-1.953-1.922-2.433.422-1.003 1.568-2.015 2.637-2.38 5.478-1.878 11.026-3.55 17.336-5.543-6.622-5.419-12.78-10.362-18.833-15.428-29.278-24.506-54.011-52.714-70.809-87.335-.741-1.528-.921-3.329-1.362-5.003 1.827-.315 3.658-.906 5.48-.88 2.639.038 5.271.523 8.712.907-1.44-2.382-2.58-4.266-3.8-6.815-.76-1.466-1.44-2.266-2.12-3.067-.328-.347-.655-.694-1.066-1.635-.79-1.437-1.497-2.28-2.203-3.124 0 0 .208-.066.16-.248-.4-.479-.755-.775-1.108-1.071-.148-.134-.296-.268-.589-.99-.587-.943-1.03-1.299-1.472-1.655 0 0 .322-.232.246-.466-1.124-1.338-2.17-2.443-3.218-3.548 0 0 .17-.19.105-.421-.753-1.016-1.44-1.8-2.128-2.584 0 0 .184-.147.124-.375-.681-.758-1.302-1.29-1.922-1.82 0 0 .12-.045.1-.327-.447-.672-.876-1.063-1.304-1.454 0 0 .178-.326.168-.513-.911-1.064-1.813-1.942-2.715-2.819 0 0-.234-.174-.28-.676-.754-1.344-1.462-2.186-2.17-3.028 0 0 .117-.073.08-.374-.954-1.487-1.871-2.672-2.788-3.858 0 0 .07-.031.063-.367-.79-1.348-1.574-2.36-2.357-3.371 0 0 .033-.218.055-.382-.216-.419-.455-.674-.693-.93 0 0-.191-.194-.226-.721-2.664-7.439-5.404-14.311-7.805-21.3-.387-1.124.738-2.768 1.164-4.171 0 0-.173.08.085.363 8.94 2.122 17.597 4.1 26.318 5.742 4.086.769 8.294.89 12.447 1.305.563.067 1.126.133 2.328.278.786-.82 1.304-1.857 1.026-2.594-4.758-12.605-9.933-25.06-14.374-37.773-6.973-19.962-13.948-39.947-19.994-60.2-4.191-14.037-6.784-28.55-10.206-42.822-.352-1.47-1.495-2.75-2.27-4.117-.104-.44-.207-.88-.06-1.97.31-2.3.511-3.96.41-5.601-.585-9.406-1.171-18.812-1.912-28.206-.26-3.296 1.104-4.588 4.236-4.398 0 0-.162.106-.007.38 1.156.666 2.157 1.058 3.157 1.45 0 0 .027.063.049.357.388.45.755.607 1.121.763 0 0 .297.035.537.42.928.761 1.616 1.135 2.304 1.51 0 0-.286.228-.15.434.814.66 1.49 1.112 2.166 1.566 0 0-.21.305-.103.43.434.264.763.4 1.091.537 0 0-.35.283-.164.436.511.298.837.444 1.162.59 0 0-.263.334-.124.45.468.253.795.39 1.123.53 0 0-.346.284-.162.435.509.3.834.448 1.16.596 0 0-.168.279-.091.482 1.094 1.305 2.11 2.406 3.128 3.508 0 0-.182.322-.098.442.412.265.739.41 1.065.555 0 0-.191.07-.136.275.409.504.762.803 1.115 1.102.147.133.293.267.583.987.587.938 1.03 1.29 1.473 1.64 0 0-.213.358-.187.537.745.94 1.464 1.702 2.184 2.464 0 0-.185.327-.1.445.413.265.74.412 1.065.56 0 0-.166.31-.097.49.758.964 1.447 1.744 2.135 2.525 0 0-.211.205-.113.373.424.31.751.451 1.078.593 0 0-.124.29-.126.506.902 1.091 1.806 1.968 2.71 2.844 0 0 .243.184.31.648.415.655.763.846 1.11 1.037 0 0-.312.128-.152.336.489.354.817.5 1.146.644 0 0-.165.312-.084.5 2.257 2.452 4.433 4.716 6.61 6.98l1.27-.862c-.263-1.571-.364-3.19-.812-4.707-4.665-15.787-9.8-31.449-13.978-47.362-4.657-17.737-8.75-35.637-12.548-53.58-3.656-17.274-6.582-34.701-9.95-52.037-.38-1.96-1.55-3.765-2.352-5.643-.103-.439-.205-.878-.058-1.963-.479-4.106-1.207-7.566-1.936-11.026-.104-.44-.209-.88-.06-1.97.04-3.342-.389-6.043-.277-8.72.046-1.12-2.079-4.149 1.851-3.323 2.553 5.313 5.132 10.613 7.655 15.94 13.049 27.55 27.219 54.459 45.262 79.153.464.635.954 1.25 2.003 2.62.405-2.4.793-3.923.903-5.466 2.779-39.176 5.53-78.354 8.283-117.532.7-9.96 1.28-19.932 2.177-29.874.144-1.597 1.661-3.07 2.544-4.6 1.152 1.108 2.874 2.008 3.368 3.357 5.238 14.308 9.634 28.96 15.534 42.982 8.047 19.123 17.06 37.846 26.007 56.575 1.578 3.304 4.909 5.755 7.325 8.686.858 1.042 1.404 2.34 1.793 4.134-2.015 1.052-3.727 1.849-5.447 1.867-6.8.072-13.603-.1-20.414-.569-3.129-13.159-2.515-26.947-10.608-38.502-.658 4.02-.998 8.02-.585 11.94.794 7.524 2.017 15.002 2.828 22.809-.388 2.722-.542 5.136-.691 7.474-9.511.72-14.215 3.35-12.41 14.684 2.06 12.925 2.665 26.095 3.633 39.178.699 9.445 1.103 18.918 1.378 28.386.445 15.271.676 30.55.689 45.733-.876-.89-1.544-1.635-1.996-2.494-6.82-12.933-13.461-25.964-20.49-38.783-2.656-4.845-5.753-9.64-12.107-12.34.5 3.069.57 5.565 1.335 7.827 2.548 7.542 5.694 14.896 7.98 22.512 5.76 19.19 11.81 38.33 16.556 57.78 4.894 20.05 8.51 40.419 12.43 60.697 1.653 8.546 2.653 17.218 4.075 26.288-.028 5.514-.183 10.572-.662 15.54-1.983-3.483-3.786-6.814-5.279-10.278-7.492-17.388-13.808-35.392-22.66-52.05-8.287-15.594-19.114-29.855-29.132-44.49-1.481-2.164-4.668-3.16-7.065-4.696l-1.922 1.693c30.133 61.74 55.611 125.132 69.993 192.601-13.26-6.7-23.694-17.476-37.867-22.388.65 2.937 1.4 5.787 3.2 7.59 11.995 12.012 24.351 23.665 36.288 35.733 4.565 4.614 8.337 10.013 13.078 15.795l-25.636 5.749c26.163 20.82 55.908 31.394 85.834 41.969-6.018 13.117-20.348 16.044-28.772 26.158 2.413 1.488 4.042 2.592 5.759 3.538 16.253 8.96 34.233 11.001 52.207 11.903 17.287.868 34.65.19 51.98.264 2.131.01 4.42.041 6.365.78 10.266 3.896 20.522 7.842 30.617 12.154 4.133 1.766 7.674 4.168 12.383 1.19 1.911-1.209 4.883-1.398 7.256-1.106 8.843 1.088 17.661 2.432 26.444 3.94 7.848 1.347 14.851 4.455 20.08 10.822.528.644 1.66.791 2.682 1.244 1.876-3.375 3.657-6.367.61-9.743a500 500 0 0 1-7.9-8.968c-3.221-3.746-6.388-7.539-9.73-11.491 7.882-6.648 16.842-10.544 26.061-12.863 19.56-4.92 39.39-8.765 59.122-12.998 7.185-1.542 14.403-2.936 22.04-4.485-.957-2.123-1.53-3.396-2.073-4.597 12.19-1.637 24.149-2.916 35.983-4.923 11.897-2.017 23.536-5.155 34.384-10.464l-.284-1.31c-13.675-2.188-27.35-4.374-42.436-6.786C716.93 749.29 729.39 739.93 742.152 731c15.92-11.141 32.169-21.816 48.099-32.946 4.048-2.828 7.62-6.434 10.998-10.065 1.07-1.15.803-3.541 1.345-6.412-3.416 1.266-5.133 1.859-6.817 2.532-11.49 4.595-22.974 9.206-34.568 13.364.62-12.491 1.346-24.534 2.3-36.8 9.429-17.239 18.942-34.093 27.75-51.31 10.497-20.515 17.73-42.319 23.512-64.582.782-3.012.108-6.401.108-9.616l-2.416-.318c-8.763 23.821-13.931 49.175-29.289 71.411-.487-3.182-1.148-5.398-1.097-7.598.112-4.795.32-9.618.962-14.366 2.413-17.84 4.328-35.786 7.75-53.437 3.134-16.16 7.84-32.025 12.093-47.956 5.113-19.155 10.618-38.206 15.596-57.395.816-3.147-.208-6.77-.382-10.174l-2.042-.093c-.355 1.276-.778 2.538-1.05 3.831-.782 3.717-.871 7.722-2.359 11.122-5.637 12.88-11.321 25.768-17.74 38.267-7.02 13.668-14.872 26.907-22.782 40.262-.255-10.316-.545-20.593.167-30.799 1.675-23.989 6.412-47.743 5.502-71.947-.045-1.179 1.443-2.415 2.386-3.674.17-.05.52-.094.52-.094s.056.041.13.365c.653 1.135 1.231 1.947 1.809 2.76 0 0 .346-.196.313.215 1.341 2.072 2.714 3.732 4.087 5.393 0 0-.04.047.028.296.353.415.638.582.922.748 0 0 .006.025.09.307.558.864 1.03 1.446 1.504 2.029 0 0 .077.037.228.359 2.324 3.242 3.488 2.261 4.136-.71 0 0 .06.019.316-.176.755-1.384 1.254-2.573 1.752-3.763 0 0-.004-.02.28-.25 1.684-7.677 4.273-15.131 4.229-22.57-.083-14.081-1.678-28.153-2.644-42.229 0 0 .12-.06.337-.269 1.095-.106 1.972-.002 2.848.101 0 0-.05.107.05.525 1.036 5.772 1.864 11.15 2.928 16.479 2.93 14.676 5.96 29.332 8.951 43.996l2.168-.01 4.85-12.772s.004-.02.277-.239c.758-1.731 1.242-3.243 1.726-4.756 0 0 .004-.022.278-.242.756-1.733 1.238-3.247 1.721-4.761 0 0 .001-.021.279-.244 8.759-21.4 17.24-42.577 25.722-63.754 0 0 .001-.022.276-.24.759-1.732 1.242-3.246 1.725-4.76 0 0 0-.022.275-.242 1.425-3.066 2.575-5.912 3.724-8.759 0 0 .22-.257.531-.655 1.153-2.613 1.996-4.828 2.838-7.044 0 0-.046-.307.188-.224.234.084.41-.285.41-.285.458-.062.915-.125 2.031.077.648 3.363 1.124 6.554.552 9.545-5.834 30.515-12.502 60.886-17.595 91.521-4.523 27.203-7.418 54.679-10.893 82.052-1.493 11.766-2.638 23.576-3.94 35.367l.985.256 6.894-20.611s-.002-.021.272-.24c.76-1.732 1.243-3.246 1.727-4.76 0 0-.001-.021.274-.24.758-1.732 1.242-3.246 1.725-4.76 0 0 .001-.02.266-.226.755-1.395 1.246-2.583 1.737-3.772 0 0-.002-.022.274-.242 3.425-7.734 6.574-15.249 9.724-22.763 0 0-.004-.02.263-.224.735-1.414 1.203-2.623 1.671-3.833 0 0 .058.015.315-.18.754-1.385 1.25-2.575 1.748-3.765 0 0 0-.019.254-.21.545-.957.835-1.72 1.125-2.484-.127-.11-.253-.221.036-.243.7-.099.864-.361.907-.7 0 0 .013-.07.307-.21.631-.83.968-1.52 1.306-2.211 0 0 .06.017.296-.13.724-.721 1.21-1.294 1.698-1.867 0 0 .048.033.414.019a131 131 0 0 1 2.572.018s.036.065.187.495c.026 2.751.167 5.123-.268 7.384-6.952 36.171-13.333 72.468-21.19 108.443-6.439 29.488-14.714 58.574-22.007 87.88-.872 3.503-.685 7.27-.988 10.914l1.19.205 1.421-1.856s.04-.081.299-.187c.549-.288.717-.55.764-.89 0 0-.03-.096.242-.159.555-.252.717-.517.755-.856 0 0-.096-.152.205-.179.589-.213.754-.477.796-.818 0 0 .01-.07.316-.214.996-1.147 1.686-2.15 2.377-3.155 0 0-.024-.017.232-.083.401-.364.546-.663.69-.961 0 0 .058.017.284-.129.528-.591.831-1.037 1.134-1.483 0 0-.27-.294.103-.239.66-.131.823-.395.864-.735 0 0-.078-.137.215-.173.58-.223.744-.487.785-.828 0 0-.083-.142.212-.175.583-.22.747-.484.788-.825 0 0-.081-.141.213-.174.582-.22.746-.484.787-.824 0 0-.076-.137.216-.172.578-.223.743-.486.785-.825 0 0-.242-.312.155-.254.75-.352 1.104-.764 1.457-1.175 0 0 .045.042.293-.027.427-.353.607-.636.786-.92 0 0-.023-.015.318-.087 2.762-1.702 5.183-3.333 7.603-4.963 0 0 .045.04.387-.044 2.1-.758 3.857-1.43 5.613-2.103 0 0 .154.216.173.635-1.695 7.12-3.408 13.822-5.122 20.523 0 0-.214.267-.48.713-3.35 8.39-6.435 16.334-9.52 24.279 0 0-.216.258-.526.652-1.364 3.046-2.418 5.698-3.472 8.35 0 0-.22.258-.534.653-1.365 3.047-2.418 5.699-3.47 8.35 0 0-.003.019-.266.224-.752 1.395-1.242 2.585-1.731 3.775 0 0-.218.257-.528.646-1.364 2.71-2.419 5.03-3.474 7.35 0 0-.214.251-.545.547-.705 1.015-1.08 1.734-1.454 2.452 0 0-.015.021-.271.207-.724 1.079-1.193 1.97-1.661 2.863 0 0-.068-.02-.326.155-1.06 1.39-1.864 2.606-2.667 3.821 0 0-.245.212-.543.478-.485.562-.672.86-.86 1.157 0 0 .033.165-.31.215-1.373 1.391-2.403 2.733-3.433 4.074-.296.14-.54.343-1.078.905-.492.594-.637.892-.781 1.191 0 0-.068-.02-.29.13-.525.596-.828 1.042-1.131 1.488 0 0 .292.308-.091.242-.672.123-.837.388-.879.73 0 0 .259.333-.144.26-.756.34-1.11.75-1.463 1.162 0 0-.052-.048-.3.026-.425.357-.602.64-.78.925 0 0 .013.004-.237.07-.422.353-.594.64-.766.926 0 0 .016.008-.236.074-.424.352-.596.64-.768.926-.324.093-.586.277-1.199.845a72 72 0 0 0-3.01 2.967s.196.16-.132.122c-.665.096-.873.34-.95.695 0 0 .049.12-.234.164-.575.232-.74.498-.78.843 0 0 .255.193-.137.206-.594.3-.797.587-1 .874 0 0-.31.115-.67.281-.535.446-.711.727-.887 1.008-.32.085-.583.258-1.236.787-1.7 1.488-2.951 2.707-4.202 3.925 0 0-.314.118-.676.28-.536.442-.71.721-.884 1 0 0 .017.011-.323.086-1.764 1.4-3.187 2.725-4.61 4.05l.579 1.11h18.592l-1.226 3.738s-.218.258-.504.611c-.48.935-.675 1.516-.87 2.098 0 0 .392.267-.03.207-.71.128-.874.393-.916.735 0 0 .225.186-.154.208-.582.312-.784.602-.987.891 0 0-.306.104-.724.259-1.24.755-2.06 1.356-2.88 1.957 0 0 .057.062-.287.085-1.754 1.022-3.165 2.02-4.575 3.02 0 0-.052-.049-.352.022-.923.591-1.547 1.112-2.17 1.633l-.733.28c-1.24.757-2.06 1.352-2.88 1.946 0 0 .067.075-.31.113-4.276 2.58-8.176 5.12-12.077 7.662 0 0-.313.117-.77.296-3.381 2.017-6.307 3.854-9.232 5.691 0 0-.323.087-.778.206-1.537.795-2.619 1.472-3.701 2.15 0 0-.05-.048-.395.043-10.278 3.696-19.945 8.709-30.193 10.64-28.838 5.431-57.938 9.46-86.888 14.327-11.119 1.869-22.109 4.507-33.158 6.794 12.709 5.036 25.535 2.446 38.247 2.425 10.096-.017 20.192-.169 30.288-.26"/>
  <path fill="#F8F7F6" d="M780.009 402.35c-.774 1.21-2.262 2.446-2.217 3.625.91 24.204-3.827 47.958-5.502 71.947-.712 10.206-.422 20.483-.505 31.123-.236 1.483-.767 2.555-.84 3.657-1.34 20.054-2.702 40.106-3.894 60.168-1.045 17.577-1.996 35.161-2.778 52.752-.521 11.75-.673 23.516-.99 35.274-.728 12.043-1.454 24.086-2.192 37.04-.072 2.065-.174 3.22-.187 4.376-.156 13.704-.15 13.71-12.82 18.243-.77.275-1.624.309-2.404.56-11.251 3.635-22.496 7.288-34.155 10.895-1.567.059-2.766-.008-3.871.284-14.423 3.802-28.878 7.491-43.234 11.53-34.784 9.784-69.527 19.709-104.272 29.63-31.238 8.919-62.419 18.04-93.703 26.789-10.012 2.8-14.113 3.22-20.272-6.731-1.658-2.678-3.364-5.43-5.545-7.663-21.834-22.357-43.771-44.614-65.663-67.27-1.659-3.338-2.812-6.804-5.097-9.182-11.278-11.735-22.914-23.123-34.303-34.75-6.537-6.675-11.105-14.352-11.604-24.054-.597-11.595-1.44-23.177-2.109-35.134-.024-1.368-.118-2.366-.132-3.7.039-.788-.003-1.242-.044-1.696.155-5.059.31-10.117.48-16.079.025-3.055.189-5.22.017-7.357-1.697-21.142-3.663-42.266-5.12-63.424-1.152-16.7-1.699-33.443-2.514-50.167-.321-15.275-.552-30.553-.997-45.824-.275-9.468-.68-18.941-1.378-28.386-.968-13.083-1.573-26.253-3.632-39.178-1.806-11.334 2.898-13.964 12.409-14.684.149-2.338.303-4.752.684-7.083.657 2.411 1.087 4.74 1.68 7.95l6.701-4.2c6.802.081 13.605.253 20.405.18 1.72-.017 3.432-.814 5.319-1.393 1.493.127 2.834.694 4.136.616 22.55-1.344 45.117-2.476 67.635-4.237 39.896-3.12 79.786-6.364 119.626-10.108 16.742-1.573 33.301-3.72 50.01.244 12.278 2.912 24.772 4.919 37.046 7.846 35.043 8.356 70.038 16.91 105.018 25.528 12.854 3.166 25.61 6.726 38.34 10.087 0 8.714-.109 16.365.071 24.008.048 2.033.98 4.044 1.82 6.679.402.833.49 1.05.577 1.27m-75.582 275.168 9.046 7.779 1.111-1.362c-2.264-3.495-5.938-5.286-9.537-7.571-5.567-4.68-11.096-9.408-16.708-14.033a22299 22299 0 0 0-48.394-39.742c-.855-.7-2.04-1.846-2.812-1.666-6.968 1.617-13.877 3.483-22.34 5.675 3.352 1.889 5.453 3.308 7.74 4.302 2.83 1.231 6.074 1.672 8.685 3.22 9.64 5.717 18.98 11.944 28.645 17.619 14.616 8.58 29.409 16.858 44.564 25.78M450.55 614.03s-.054.06.738.169l4.173 3.298v-22.136l40.519-7.746c0 11.17-.29 21.505.137 31.81.18 4.368-1.41 5.738-5.295 6.465-7.403 1.385-14.725 3.198-23.21 5.084l7.585 3.351c-3.696 1.097-6.41 2.674-9.043 2.549-10.337-.491-10.815 3.493-10.589 11.844.307 11.3 1.124 22.59 1.23 33.888.274 29.316.279 58.634.39 87.951.006 1.401.001 2.802.001 4.203l1.937.392c15.633-40.798 22.872-84.197 36.68-125.628 1.606.725 2.554 1.153 3.916 1.946.103.536.205 1.072.175 2.366l-40.902 142.38c95.938-29.888 192.389-53.795 288.622-81.736-1.346-1.595-2.426-3.64-4.12-4.74-5.662-3.682-11.531-7.048-17.345-10.495-15.461-9.167-31.024-18.166-46.382-27.504-21.696-13.192-43.246-26.624-64.848-39.97-1.226-.757-2.36-1.665-3.895-2.758l4.912-3.45c-6.83-4.4-13.073-8.608-19.504-12.507-6.658-4.036-9.153-8.264-8.2-15.01.293-2.068.718-4.118 1.15-6.56 3.795 2.245 7.22 4.557 10.885 6.389 13.695 6.844 24.7 18.386 40.467 21.868 5.949 1.314 11.451 5.799 16.524 9.669 7.648 5.836 14.693 12.456 22.078 18.644 15.527 13.008 31.107 25.953 46.669 38.92 8.884 7.404 17.774 14.8 27.466 22.87 9.776-110.625 12.005-220.823 19.664-332.118-42.56 26.786-84.016 52.877-125.472 78.97l-1.25-1.58c2.372-2.552 4.346-5.719 7.18-7.56a6142 6142 0 0 1 69.65-44.623c13.128-8.284 26.508-16.17 40.073-24.417-.645-.588-1.398-1.815-1.998-1.744-56.982 6.729-113.952 13.557-171.24 20.416 0 13.062 0 25.372.057 37.626 0 0 .06-.053-.6.561-1.721-.46-3.442-.922-5.602-1.501v27.878l-18.945 2.639c0-11.946.057-23.257-.072-34.566-.016-1.407-1.013-2.803-1.555-4.204l-1.513.495c0 10.31.095 20.62-.032 30.927-.09 7.2-2.079 9.331-9.325 10.172-16.296 1.89-32.757 2.666-48.567 7.69-3.634 1.155-6.398-.393-8.536-3.476-6.151-8.873-12.498-17.614-18.543-26.558-2.549-3.771-5.733-5.689-10.806-5.55l20.842 28.793c-7.038-2.706-12.603-5.34-18.448-6.978-9.312-2.61-14.58-8.01-14.658-17.952-.007-.926-.537-1.848-.93-3.111-2.04 0-4.003 0-5.861-.94.059-7.986.262-15.975.044-23.953-.04-1.454-1.48-3.528-2.822-4.177-7.29-3.522-14.772-6.645-22.153-9.98-24.738-11.18-49.452-22.41-74.197-33.572-4.675-2.109-9.451-3.995-14.181-5.984 1.822 2.876 4.376 4.479 6.346 6.62 19.622 21.331 45.378 35.488 65.571 56.144 1.373 1.404 3.191 2.379 4.829 3.514 6.877 4.766 13.765 9.518 19.983 14.506-1.824 1.256-3.648 2.513-5.963 3.803-.329.017-.656 0-1.35-.67-13.784-11.402-27.653-22.702-41.333-34.226-21.309-17.951-42.487-36.056-63.727-54.09-1.379-1.17-2.805-2.286-3.983-3.243.675 18.88.98 37.324 2.086 55.72 1.334 22.195 3.492 44.34 5.005 66.526.757 11.107.693 22.267 1.312 33.385 2.058 37.008 4.416 73.999 6.308 111.014.598 11.701.094 23.459.094 36.457 8.979-5.261 16.901-9.676 24.598-14.455 25.343-15.733 50.604-31.598 76.162-47.506 0 0 .28-.002-.11.648.482.848.963 1.697 1.414 2.842 0 0 .06.29-.472.746-24.833 15.345-49.694 30.645-74.468 46.085-3.474 2.165-6.523 5.012-9.77 7.543l.902 1.932 103.517-20.752c0-6.985 0-13.47-.076-19.983m73.832-216.174c10.79-.496 21.592-.816 32.367-1.543 9.506-.64 11.81-2.86 14.293-12.165 3.383-12.679 6.894-25.324 10.199-38.022 1.274-4.897 2.135-9.9 3.3-15.407-87.196 3.103-173.14 12.593-259.322 19.106 11.819 6.687 23.386 13.253 35.452 18.718 17.895 8.105 36.19 15.322 54.22 23.137 7.244 3.14 14.128 7.113 21.382 10.226 4.502 1.931 9.445 4.325 14.096 4.14 15.249-.602 30.481-2.032 45.666-3.654 9.198-.983 18.296-2.91 28.347-4.536M365.494 657.012l-32.691 6.291 118.93 127.646 1.297-.523c.268-2.73.758-5.46.761-8.19.01-8.82-.037-17.641-.287-26.456-.339-11.937-.71-23.878-1.4-35.798-.526-9.075-2.083-18.108-2.278-27.18-.375-17.433-.109-34.88-.109-53.15-5.483.597-11.474.702-17.209 1.97-22.1 4.887-44.12 10.145-67.014 15.39m367.321-281.67 22.862-2.714.11-2.147c-54.434-15.078-109.613-27.211-164.704-40.78v61.294c47.08-5.193 93.944-10.362 141.732-15.654M473.9 435.15c9.901-.982 19.845-1.655 29.691-3.028 11.294-1.574 22.46-4.087 33.761-5.587 7.997-1.06 16.126-1.115 24.269-1.624l3.833-25.798-110.589 13.658c4.158 6.494 7.856 12.732 12.082 18.59 1.281 1.776 4.022 2.5 6.953 3.79M588.137 400.3c-.44-.574-.868-1.636-1.321-1.646-5.095-.118-10.194-.075-15.233-.075l-6.28 28.183 18.258 6.465c1.538-11.001 3.005-21.493 4.576-32.927m-1.963-33.798v-16.983l-1.208-.03-12.534 46.467 13.742-5.318zM454.79 437.823l11.845 1.057-14.758-19.422-1.66 1.03c1.41 5.528 2.821 11.057 4.573 17.335m7.831 188.043-5.592-6.636-1.22 1.028v12.969l11.221-2.613a472 472 0 0 0-4.409-4.748"/>
  <path fill="#F9F9F9" d="M800.766 275.203c9.036 1.55 17.632 3.04 26.669 4.608-2.586 5.362-6.88 7.829-11.655 9.718-12.99 5.14-25.965 10.318-38.984 15.382-4.67 1.817-8.833 3.858-12.57 7.678-3.118 3.187-8.34 4.346-12.674 6.31-4.614 2.09-9.216 4.23-13.937 6.054-4.404 1.7-8.959 3.012-13.43 4.488-6.44-12.68-6.273-25.131-2.808-37.944 7.69-28.435 15.086-56.949 22.858-85.361 1.082-3.956 3.608-7.516 5.466-11.26l1.598.36c1.507 7.677 3.077 15.342 4.506 23.034 3.108 16.735 6.052 33.501 9.376 50.193.271 1.365 2.817 3.024 4.479 3.245 10.195 1.354 20.44 2.334 31.106 3.495m-66.773 18.395-6.673 25.77c24.427-10.81 47.846-21.172 72.17-31.935-14.273-4.661-27.366-8.875-40.394-13.282-1.395-.472-3.23-1.91-3.474-3.169-2.424-12.496-4.53-25.054-6.825-37.576-.167-.907-1.118-1.67-1.846-2.7a41482 41482 0 0 0-12.958 62.892"/>
  <path fill="#F2F2F2" d="M592.135 170v-29.452l1.092-1.019c1.518 1.435 3.9 2.608 4.425 4.343 8.318 27.423 16.418 54.912 24.498 82.406.835 2.843 1.352 5.798 1.792 8.734.66 4.405 3.239 6.774 7.497 6.027 7.772-1.363 15.403-3.521 23.17-4.925 10.414-1.883 20.916-3.277 31.348-5.07 3.208-.551 6.278-1.873 9.476-2.527 1.214-.249 2.936.01 3.806.758.555.477.451 2.733-.186 3.407-2.757 2.918-5.366 6.592-8.848 8.1-14.786 6.403-30.225 11.394-44.664 18.457-6.183 3.025-11.95 7.26-18.443 10.082-10.57 4.594-21.006 9.499-31.515 14.236-.882.398-1.888.52-3.447.932zm80.494 74.115c1.248-.43 2.585-.703 3.716-1.34.992-.56 1.754-1.528 2.618-2.316-1.215-.352-2.51-1.17-3.63-.977-5.214.894-10.373 2.099-15.564 3.133-12.77 2.545-25.547 5.058-38.525 7.624l-22.508-90.577-.573.178v115.803c9.909-4.353 19.06-8.528 28.346-12.383 4.229-1.755 8.722-2.872 13.092-4.287 1.08-.349 2.375-.459 3.186-1.138 8.506-7.13 19.176-9.47 29.842-13.72"/>
  <path fill="#F8F8F8" d="M489.693 245.264c3.245 4.797 6.298 9.297 9.208 13.889 1.932 3.05 4.044 3.506 7.767 2.715 9.66-2.054 19.519-3.172 29.291-4.708 7.348-1.155 14.67-2.484 22.035-3.513 2.58-.36 5.254-.058 7.886-.058l.258 1.468c-7.417 3.434-14.819 6.906-22.256 10.297-16.204 7.387-32.386 14.825-48.657 22.06-8.185 3.638-8.493 2.545-12.465-5.735-6.621-13.8-14.359-27.071-21.785-40.478-4.646-8.387-9.533-16.642-14.406-24.901-3.363-5.7-3.764-11.825-3.211-18.416 5.202-.178 9.24 2.047 12.287 5.576 5.29 6.128 10.11 12.658 15.215 18.948 6.145 7.572 12.382 15.07 18.833 22.856m11.7 22.525c-4.13-4.198-8.456-8.223-12.346-12.633-6.834-7.746-13.4-15.729-20.078-23.612l-1.834 1.244c5.547 17.153 15.871 32.053 23.505 48.608 14.006-5.188 27.616-10.179 41.165-15.33 1.354-.516 2.335-2.014 3.488-3.056-1.455-.03-2.95-.291-4.361-.054-9.58 1.607-19.141 3.32-29.538 4.833"/>
  <path fill="#492C0B" d="M837.665 495.098c-1.95 6.806-4.247 13.676-6.545 20.546l-.986-.256c1.303-11.79 2.448-23.601 3.941-35.367 3.475-27.373 6.37-54.85 10.893-82.052 5.093-30.635 11.761-61.006 17.595-91.52.572-2.992.096-6.183-.206-9.505 3.278-1.538 3.89.607 3.318 3.27-2.424 11.28-5.283 22.472-7.49 33.792-3.627 18.596-6.882 37.265-10.275 55.906-1.948 10.698-4.075 21.369-5.713 32.114-1.12 7.342-1.433 14.802-2.287 22.188-1.024 8.857-2.285 17.686-3.357 26.538q-1.399 11.56-2.574 23.146c-.153 1.508.182 3.066.371 5.723 1.467-2.203 2.217-3.33 3.315-4.523m-162.79 324.523c-10.005.482-20.1.634-30.197.65-12.712.022-25.538 2.612-38.247-2.424 11.05-2.287 22.04-4.925 33.158-6.794 28.95-4.867 58.05-8.896 86.888-14.328 10.248-1.93 19.915-6.943 30.203-10.606-4.446 2.58-9.01 5.854-14.09 7.739-15.646 5.804-32.09 8.076-48.566 10.237-11.447 1.502-22.779 3.874-34.19 5.672-9.728 1.533-19.52 2.662-29.238 4.247-4.79.782-9.48 2.19-14.214 3.316l-.043 1.86c2.88.211 5.766.68 8.636.591 15.93-.492 31.853-1.134 47.781-1.649.663-.021 1.351.715 2.119 1.49m-61.488-1.143s.14-.09 0 0M824.96 655.165c-.163.929-.637 1.547-1.11 2.166l-1.191-.205c.303-3.644.116-7.41.988-10.914 7.293-29.306 15.568-58.392 22.008-87.88 7.856-35.975 14.237-72.272 21.19-108.443.434-2.26.293-4.633.304-7.389.497.686 1.771 1.906 1.622 2.916-2.093 14.176-4.278 28.341-6.653 42.474-1.936 11.519-3.782 23.074-6.341 34.461-3.45 15.35-7.488 30.568-11.378 45.816-3.45 13.528-7.146 26.994-10.545 40.534-3.366 13.412-6.564 26.867-9.648 40.346-.414 1.808.268 3.866.753 6.118"/>
  <path fill="#D39747" d="M233.471 311.373c.816 1.477 1.984 3.283 2.365 5.242 3.368 17.336 6.294 34.763 9.95 52.036 3.798 17.944 7.89 35.844 12.548 53.58 4.178 15.914 9.313 31.576 13.978 47.363.448 1.517.55 3.136.812 4.707l-1.27.862c-2.177-2.264-4.353-4.528-6.544-7.143 1.95 1.388 3.914 3.128 5.879 4.868-16.101-52.988-29.22-106.508-37.718-161.515m-1.993 163.007c.79.969 1.932 2.248 2.284 3.718 3.422 14.272 6.015 28.785 10.206 42.823 6.046 20.252 13.021 40.237 19.994 60.199 4.44 12.713 9.616 25.168 14.374 37.773.278.737-.24 1.775-.61 2.688-6.518-17.086-13-34.12-19.064-51.302-10.316-29.224-21.14-58.316-26.146-89.105-.347-2.133-.701-4.264-1.038-6.794"/>
  <path fill="#492C0B" d="M819.663 393.091c-1.27 4.198-2.886 8.455-4.503 12.712l-2.168.01c-2.99-14.664-6.02-29.32-8.95-43.996-1.065-5.33-1.893-10.707-2.874-16.457.881.594 2.455 1.478 2.633 2.587 1.515 9.428 2.485 18.95 4.212 28.335 1.21 6.571 3.338 12.974 5.08 19.447.42 1.566.934 3.107 1.633 5.413 1.7-2.96 3.145-5.476 4.937-8.05m-22.166-48.005c1.347 13.97 2.942 28.042 3.025 42.123.044 7.439-2.545 14.893-4.22 22.565.685-9.708 2.398-19.641 2.397-29.574-.001-10.142-1.746-20.279-2.57-30.43-.12-1.49.636-3.051 1.368-4.684m52.169-25.993c-8.135 21.118-16.616 42.295-25.368 63.688 1.14-4.49 2.206-9.331 4.02-13.874 6.4-16.013 13.05-31.927 19.638-47.864.288-.699.9-1.264 1.71-1.95"/>
  <path fill="#D39747" d="M233.927 433.58c-2.893.036-4.256 1.328-3.997 4.624.74 9.394 1.327 18.8 1.911 28.206.102 1.64-.098 3.3-.394 5.258-3.196-12.981-4.744-26.322-1.743-40.304 1.462.73 2.723 1.36 4.223 2.215m40.695 187.478c-3.793-.263-8.001-.384-12.087-1.153-8.72-1.642-17.378-3.62-26.238-5.795 12.537 2.042 25.251 4.419 38.325 6.948"/>
  <path fill="#492C0B" d="M802.344 755.914c-.003-.996.343-2.05.877-3.68H784.63l-.58-1.11c1.424-1.324 2.847-2.649 4.605-4.057.244.723.153 1.53-.013 3.001 3.976 0 7.86-.15 11.722.077 1.454.086 2.856 1.045 4.281 1.606-.65 1.369-1.3 2.737-2.3 4.163"/>
  <path fill="#D39747" d="M233.042 283.598c-3.968-.454-1.843 2.576-1.89 3.695-.11 2.677.319 5.378.294 8.376-1.342-7.042-2.447-14.39-3.552-21.74l.878-.324c1.436 3.207 2.872 6.414 4.27 9.993m2.789 329.999c-.125 1.605-1.25 3.249-.863 4.373 2.401 6.989 5.141 13.861 7.802 21.163-3.875-8.019-7.782-16.428-12.22-25.982 2.9.142 3.94.193 5.281.446"/>
  <path fill="#492C0B" d="M840.342 677.908c2.738-7.885 5.823-15.829 9.148-24.05-1.206 4.81-2.42 9.98-4.182 14.954-1.12 3.161-3.052 6.034-4.966 9.096m13.323-219.818c-2.802 7.454-5.951 14.969-9.368 22.696 2.829-7.403 5.925-15.019 9.368-22.695m-3.313 194.815c1.357-6.631 3.07-13.333 4.89-20.412-.575 4.652-1.095 9.713-2.024 14.697-.367 1.97-1.646 3.768-2.866 5.715M771.93 777.753c3.517-2.594 7.417-5.136 11.659-7.752-3.53 2.552-7.403 5.179-11.659 7.752"/>
  <path fill="#D39747" d="M231.476 298.38c.743 3.063 1.471 6.523 1.966 10.286-.816-3.094-1.398-6.492-1.966-10.286"/>
  <path fill="#492C0B" d="M761.927 783.744c2.542-1.894 5.468-3.731 8.74-5.621a90 90 0 0 1-8.74 5.621m86.637-149.779c-2.04 1.63-4.461 3.26-7.215 4.974a76 76 0 0 1 7.215-4.974m-12.216 52.945c.703-2.592 1.757-5.244 3.082-8.126-.73 2.535-1.73 5.3-3.082 8.126m19.316-381.816c-.8 2.787-1.95 5.633-3.367 8.692a61 61 0 0 1 3.367-8.692m-23.32 390.817c.701-2.59 1.754-5.241 3.077-8.124a53 53 0 0 1-3.077 8.124m-6 12.001c.705-2.264 1.76-4.585 3.083-7.13a44 44 0 0 1-3.083 7.13m32.685-410.509c-.49 2.148-1.332 4.363-2.443 6.812a36 36 0 0 1 2.443-6.812m-4.306 334.17c-1.535.918-3.292 1.59-5.4 2.319 1.491-.818 3.335-1.691 5.4-2.32m-40.444 92.338c.675-1.314 1.705-2.656 3.03-4.116-.696 1.284-1.686 2.686-3.03 4.115m-23.366 21.854c.88-1.272 2.132-2.491 3.706-3.776-.897 1.232-2.117 2.53-3.706 3.776m-3.903-335.169c-1.346-1.315-2.719-2.975-4.224-4.935a47 47 0 0 1 4.223 4.935m6.509 3.386c-.221 2.96-1.385 3.941-3.689.736 1-.431 2.132-.578 3.69-.736m58.131-99.874c-.12 1.443-.602 2.957-1.353 4.681.152-1.396.57-3.003 1.353-4.68m-28.002 68.998c-.119 1.442-.601 2.956-1.35 4.68.15-1.396.568-3.002 1.35-4.68m-4.233 334.864c.458-1.171 1.261-2.387 2.347-3.752-.48 1.136-1.241 2.422-2.347 3.752m22.233-232.864c-.12 1.442-.603 2.956-1.353 4.682.152-1.396.57-3.003 1.353-4.682m-1.998 5c-.12 1.442-.605 2.956-1.355 4.682.153-1.395.572-3.002 1.355-4.682m-18-101.998c-.121 1.442-.605 2.954-1.357 4.677.153-1.395.573-3 1.357-4.677m-31.233 377.935c1.061-.998 2.472-1.996 4.211-3.057-1.068.977-2.465 2.016-4.211 3.057m40.251-116.994c-.335.973-1.025 1.977-1.986 3.126.363-.935.997-2.015 1.986-3.126"/>
  <path fill="#D39747" d="M246 645.367c.848.86 1.765 2.045 2.698 3.597-.865-.846-1.747-2.059-2.698-3.597m12.766 18.227a16 16 0 0 1 2.95 3.363c-1.006-.784-1.925-1.922-2.95-3.363m-8.488-215.228c-.932-.788-1.95-1.889-2.979-3.343.957.775 1.925 1.902 2.979 3.343m12.564 16.351c-.832-.575-1.736-1.452-2.557-2.68.883.56 1.684 1.47 2.557 2.68"/>
  <path fill="#492C0B" d="M866.89 441.686c-.7.313-1.436.302-2.541.276a5.7 5.7 0 0 1 2.54-.276"/>
  <path fill="#D39747" d="M243.717 641.616c.703.698 1.486 1.71 2.252 3.087-.736-.68-1.454-1.727-2.252-3.087"/>
  <path fill="#492C0B" d="M855.596 454.045c-.117 1.138-.585 2.347-1.312 3.756.148-1.096.554-2.39 1.312-3.756m-54.493 282.699c.533-.83 1.398-1.722 2.574-2.688-.54.826-1.391 1.726-2.574 2.688m-5.439-326.65c-.15 1.126-.648 2.315-1.424 3.676.173-1.09.623-2.35 1.424-3.676m47.997 71.006c-.137 1.124-.628 2.312-1.376 3.699.17-1.08.596-2.357 1.376-3.7"/>
  <path fill="#D39747" d="M251.16 653.278c.831.576 1.733 1.454 2.548 2.68-.884-.56-1.68-1.47-2.548-2.68"/>
  <path fill="#492C0B" d="M857.66 450.093c-.147 1.125-.644 2.315-1.418 3.678.172-1.09.62-2.352 1.418-3.678m-27.312 249.813c.137-1.124.627-2.314 1.374-3.702-.17 1.08-.595 2.358-1.374 3.702m-72.915 86.135c.714-.676 1.796-1.353 3.206-2.039-.728.673-1.783 1.356-3.206 2.04m64.967-72.065c.131-.832.6-1.724 1.322-2.79-.16.794-.572 1.762-1.322 2.79m-21.387-369.478c-.826.21-1.703.107-2.82.15.765-.058 1.768-.26 2.82-.15M678.886 821.645c-.93-.028-1.925-.423-3.127-1.075.882.065 1.971.386 3.127 1.075"/>
  <path fill="#D39747" d="M237.185 435.34c-.87-.096-1.87-.488-2.959-1.224.883.08 1.855.503 2.959 1.223m19.099 21.044c-.642-.463-1.361-1.225-1.99-2.339.698.446 1.305 1.243 1.99 2.34"/>
  <path fill="#492C0B" d="M795.281 762.962c.47-.624 1.29-1.225 2.422-1.858-.482.605-1.276 1.243-2.422 1.858m-10.997 6.988c.47-.62 1.29-1.214 2.42-1.843-.482.6-1.276 1.233-2.42 1.842m5.381-355.964c-.557-.248-1.03-.83-1.575-1.694.505.266 1.082.812 1.575 1.694"/>
  <path fill="#D39747" d="M256.714 660.594c.611.475 1.3 1.26 1.992 2.387-.635-.463-1.275-1.27-1.992-2.387m8.006 10.998c.628.52 1.335 1.363 2.058 2.565-.648-.508-1.313-1.375-2.057-2.565m3.252 4.746c.618.49 1.298 1.29 1.981 2.427-.637-.482-1.278-1.298-1.98-2.427"/>
  <path fill="#492C0B" d="M824.342 710.903c.027-.654.402-1.373 1.065-2.228-.047.63-.383 1.397-1.065 2.228m-41.698-305.901c-.585-.483-1.163-1.295-1.791-2.405.566.493 1.182 1.284 1.791 2.405m5.252 362.75c.273-.574.897-1.095 1.83-1.652-.287.544-.883 1.124-1.83 1.652m73.714-323.723c-.003.631-.34 1.322-.935 2.152.028-.604.314-1.349.935-2.152"/>
  <path fill="#D39747" d="M248.719 649.596c.628.519 1.336 1.361 2.062 2.563-.649-.507-1.316-1.373-2.062-2.563m10.567-189.201c-.61-.474-1.298-1.254-1.989-2.38.635.462 1.273 1.267 1.99 2.38"/>
  <path fill="#492C0B" d="M859.054 447.397c.045.7-.245 1.464-.783 2.414-.016-.66.216-1.506.783-2.414"/>
  <path fill="#D39747" d="M243.242 440.403c-.575-.17-1.251-.624-1.934-1.411.606.153 1.22.64 1.934 1.41M254.9 658.389c.56.232 1.18.763 1.794 1.618-.583-.223-1.159-.772-1.794-1.618"/>
  <path fill="#492C0B" d="M863.623 442c-.171.546-.658 1.119-1.403 1.816.191-.514.639-1.151 1.403-1.816"/>
  <path fill="#D39747" d="M241.195 438.41q-.834-.147-2.064-1.13c.556.097 1.244.477 2.064 1.13"/>
  <path fill="#492C0B" d="M839.635 639.985c-.044.388-.398.8-1.013 1.296.06-.368.382-.82 1.013-1.296m-31.26 90.035c.046-.387.399-.798 1.014-1.293-.06.367-.383.818-1.014 1.294m2.576-2.388c-.004-.428.299-.874.848-1.444-.016.393-.278.91-.848 1.444m-9.991 30.964c-.144-.497.05-1.078.49-1.849.113.462-.019 1.113-.49 1.849"/>
  <path fill="#D39747" d="M252.298 450.822c-.342-.067-.695-.366-1.004-.912.36.062.677.371 1.004.912m1.993 2.581c-.37-.073-.812-.424-1.276-1.092.388.06.796.436 1.276 1.092m9.414 216.777c.342.065.696.361 1.01.905-.36-.06-.68-.366-1.01-.904m-2.001-2.595c.371.074.814.43 1.274 1.103-.389-.062-.796-.442-1.274-1.103"/>
  <path fill="#492C0B" d="M833.055 646.375c.006.432-.297.878-.846 1.447.015-.395.277-.914.846-1.447"/>
  <path fill="#D39747" d="M253.705 656.588c.36.112.788.503 1.192 1.222-.39-.095-.756-.52-1.192-1.222m10.532-190.154c-.25.078-.598-.113-.978-.62.272-.093.576.129.978.62"/>
  <path fill="#492C0B" d="M780.178 402.3c-.256-.168-.344-.386-.457-.957.278-.135.58.083.93.583.046.281-.304.325-.473.375m18.776 336.324c-.239-.342-.074-.608.445-.873.096.238-.035.554-.445.873m-1.115 1.063c-.098-.267.105-.554.56-.932.08.244-.09.578-.56.932m-1.623 1.238c-.06-.21.117-.49.546-.81.177.301-.01.56-.546.81m63.838-294.536c.235.34.072.602-.438.867-.096-.238.033-.553.438-.867M680.68 822.811c-.203.148-.527.056-.989-.255.197-.14.532-.062.988.255"/>
  <path fill="#D39747" d="M265.246 467.44c-.247.098-.575-.047-.916-.483.27-.114.553.063.916.483"/>
  <path fill="#492C0B" d="M789.217 746.92c-.06-.21.114-.489.54-.804.177.301-.009.559-.54.804"/>
  <path fill="#D39747" d="M260.246 461.429c-.243.097-.57-.045-.91-.475.266-.113.546.061.91.475"/>
  <path fill="#492C0B" d="M799.952 759.62c-.235-.338-.07-.603.445-.87.096.238-.036.553-.445.87m-1.117 1.078c-.098-.264.104-.554.559-.938.082.242-.088.578-.559.938"/>
  <path fill="#D39747" d="M251.25 449.436c-.246.096-.573-.049-.91-.483.27-.112.55.065.91.483m5.998 8.008c-.247.095-.573-.052-.908-.488.27-.111.55.067.908.488"/>
  <path fill="#492C0B" d="M809.952 728.621c-.236-.34-.071-.605.444-.872.096.238-.035.555-.444.872m49.901-431.928c.127.133-.049.502-.241.568-.09-.19.012-.445.241-.568"/>
  <path fill="#D39747" d="M242.999 640.258c.238-.011.477.244.687.77-.249.012-.468-.246-.687-.77"/>
  <path fill="#492C0B" d="M831.72 648.076c.082.195-.063.494-.455.87-.216-.275-.057-.557.455-.87m-3.668 4.309c.237.342.072.606-.443.87-.096-.239.035-.555.443-.87m6.001-6.999c.237.341.074.605-.438.87-.097-.238.032-.555.438-.87m-7.001 7.998c.24.338.078.603-.43.872-.098-.237.027-.554.43-.872m-.997 1.009c.231.345.063.607-.455.863-.092-.24.042-.555.455-.863m8.998-10.008c.237.342.073.606-.44.871-.097-.239.032-.555.44-.871m1-1c.237.342.073.606-.44.871-.098-.239.032-.556.44-.871m1-.999c.237.342.073.606-.44.87-.097-.238.032-.555.44-.87m1.001-.998c.236.342.071.605-.441.87-.096-.24.033-.556.44-.87"/>
  <path fill="#D39747" d="M238.361 436.5c-.241.1-.608-.056-1.026-.525.267-.118.584.076 1.026.525m5.883 4.915c-.241.101-.57-.035-.915-.46.265-.118.546.052.915.46"/>
  <path fill="#492C0B" d="M799.962 737.632c-.196-.366.012-.61.59-.799.056.234-.13.522-.59.8m40.823-98.546c.059.212-.12.495-.556.818-.175-.302.016-.564.556-.818"/>
  <path fill="#D39747" d="M245.25 442.438c-.246.095-.572-.05-.905-.485.27-.11.547.067.904.485m.993.982c-.242.1-.57-.038-.913-.465.265-.116.546.055.913.465"/>
  <path fill="#492C0B" d="M817.968 719.613c-.113-.263.074-.56.506-.97.095.238-.056.587-.506.97m-30.059-307.858c-.206.063-.49-.104-.813-.526.293-.175.55.01.813.526M812.29 725.93c-.08-.196.064-.494.457-.87.212.273.052.555-.457.87m-5.066 4.992c-.06-.21.118-.494.552-.817.173.3-.018.56-.552.817m-.999.987c-.069-.203.103-.49.523-.849.071.207-.106.486-.523.849"/>
  <path fill="#D39747" d="M247.247 444.447c-.247.095-.572-.054-.906-.49.27-.11.55.069.906.49"/>
  <path fill="#492C0B" d="M805.221 732.908c-.069-.203.103-.49.523-.85q.105.307-.523.85"/>
  <path fill="#FE7031" d="M321.783 615.828c.737 11.588 1.581 23.17 2.178 34.765.5 9.702 5.067 17.38 11.604 24.053 11.389 11.628 23.025 23.016 34.303 34.75 2.285 2.379 3.438 5.845 4.758 9.15-5.224-3.546-10.047-7.492-14.975-11.301-5.644-4.362-11.314-8.698-17.136-12.814-1.11-.785-2.98-.494-4.5-.7.33 1.424.587 2.87 1.023 4.26.189.601.72 1.108 1.142 1.619 11.297 13.686 22.628 27.346 33.886 41.065 3.059 3.727 5.904 7.63 9.025 11.684l-12.857 2.818-.07 1.698c16.057 10.728 36.167 12.256 53.397 21.664-8.809 10-21.778 13.475-29.582 23.989 4.604.563 8.2 1.178 11.821 1.417 21.17 1.395 42.368 2.42 63.511 4.134 14.826 1.2 29.49 3.748 43.708 8.378 4.845 1.578 9.691 3.16 14.583 4.58 1.12.324 2.434-.014 3.658-.047-.11-1.385.111-2.907-.396-4.127-1.112-2.673-2.593-5.193-4.324-8.554l37.485-2.942-4.213-8.651c1.878-.963 3.298-1.832 4.82-2.45 21.963-8.919 45.183-12.915 68.302-17.219 15.36-2.86 30.622-5.93 44.735-12.97 1.296-.647 2.167-2.143 3.236-3.245-1.322-.621-2.609-1.684-3.972-1.793-9.91-.796-19.838-1.366-29.754-2.099-1.735-.128-3.437-.692-5.155-1.055l.043-.965 73.777-17.962-3.906-4.907c11.246-3.648 22.49-7.3 33.742-10.935.78-.252 1.635-.286 2.405-.561 12.668-4.534 12.663-4.539 12.819-18.243.013-1.156.115-2.311.294-3.929 11.605-5.068 23.089-9.68 34.58-14.274 1.683-.673 3.4-1.266 6.816-2.532-.542 2.87-.276 5.263-1.345 6.412-3.379 3.631-6.95 7.237-10.998 10.065-15.93 11.13-32.178 21.805-48.1 32.946-12.761 8.93-25.222 18.29-39.189 28.459l42.436 6.785.284 1.31c-10.848 5.31-22.487 8.448-34.384 10.465-11.834 2.007-23.792 3.286-35.983 4.923l2.073 4.597c-7.637 1.55-14.855 2.943-22.04 4.485-19.731 4.233-39.562 8.079-59.122 12.998-9.22 2.32-18.179 6.215-26.061 12.863 3.342 3.952 6.509 7.745 9.73 11.49q3.895 4.531 7.9 8.969c3.047 3.376 1.266 6.368-.61 9.743-1.022-.453-2.154-.6-2.683-1.244-5.228-6.367-12.23-9.475-20.079-10.822-8.783-1.508-17.601-2.852-26.444-3.94-2.373-.292-5.345-.103-7.256 1.106-4.71 2.978-8.25.576-12.383-1.19-10.095-4.312-20.35-8.258-30.617-12.154-1.944-.739-4.234-.77-6.366-.78-17.33-.073-34.692.604-51.98-.264-17.973-.902-35.953-2.942-52.206-11.903-1.717-.946-3.346-2.05-5.759-3.538 8.424-10.114 22.754-13.041 28.772-26.158-29.926-10.575-59.67-21.149-85.834-41.969l25.636-5.749c-4.74-5.782-8.513-11.18-13.078-15.795-11.937-12.068-24.293-23.72-36.287-35.733-1.8-1.803-2.552-4.653-3.201-7.59 14.173 4.912 24.607 15.688 37.867 22.388-14.382-67.47-39.86-130.86-69.993-192.6l1.922-1.694c2.397 1.536 5.584 2.532 7.065 4.695 10.018 14.636 20.845 28.897 29.131 44.49 8.853 16.66 15.17 34.663 22.661 52.05 1.493 3.465 3.296 6.796 5.28 10.28.364.544.406.998.18 2.017-.095 1.656.077 2.747.25 3.838"/>
  <path fill="#FC7132" d="M763.51 660.672c.09-11.534.242-23.3.763-35.05.782-17.59 1.733-35.175 2.778-52.752 1.192-20.062 2.555-40.114 3.893-60.168.074-1.102.605-2.174 1.261-3.585 7.828-13.75 15.68-26.99 22.7-40.658 6.419-12.499 12.103-25.388 17.74-38.267 1.488-3.4 1.577-7.405 2.36-11.122.271-1.293.694-2.555 1.049-3.831l2.042.093c.174 3.403 1.198 7.027.382 10.174-4.978 19.189-10.483 38.24-15.596 57.395-4.253 15.93-8.96 31.796-12.092 47.956-3.423 17.65-5.338 35.598-7.751 53.437-.643 4.748-.85 9.57-.962 14.366-.051 2.2.61 4.416 1.097 7.598 15.358-22.236 20.526-47.59 29.289-71.41l2.416.317c0 3.215.674 6.604-.108 9.616-5.782 22.263-13.015 44.067-23.512 64.583-8.808 17.216-18.321 34.07-27.75 51.308"/>
  <path fill="#FB7234" d="M314.23 472.945c1.124 16.815 1.671 33.557 2.822 50.258 1.458 21.158 3.424 42.282 5.121 63.424.172 2.138.008 4.302-.143 6.902-1.438-8.167-2.438-16.839-4.09-25.385-3.92-20.278-7.537-40.646-12.43-60.696-4.748-19.45-10.796-38.59-16.557-57.781-2.286-7.616-5.432-14.97-7.98-22.512-.765-2.262-.836-4.758-1.335-7.828 6.354 2.702 9.45 7.496 12.107 12.341 7.029 12.819 13.67 25.85 20.49 38.783.452.859 1.12 1.604 1.996 2.494m15.766-131.702c-1.989 1.64-3.986 2.892-6.692 4.587-.593-3.21-1.023-5.538-1.446-8.258-1.038-7.889-2.26-15.367-3.055-22.89-.413-3.921-.073-7.921.585-11.94 8.093 11.554 7.48 25.342 10.608 38.501"/>
  <path fill="#020202" d="M430.947 598.162c-.481-.849-.962-1.698-.825-2.861 6.883-1.604 13.149-2.894 18.876-4.073 0-22.393.004-44.122-.001-65.852-.005-18.467-.021-36.933-.033-55.4-.006-8.33-2.275-15.455-10.683-18.984-4.375-1.835-8.894-3.324-13.348-4.97 1.823-1.256 3.647-2.513 6.067-3.88.772-.11.948-.108 1.28.2 4.936 2.757 9.715 5.208 15.25 8.046-.187-4.082-.333-7.275-.526-10.433-.046.035-.126.12-.126.12h5.968c.392 1.263.922 2.185.929 3.11.077 9.944 5.346 15.343 14.658 17.953 5.845 1.638 11.41 4.272 18.448 6.978l-20.842-28.793c5.073-.139 8.257 1.779 10.806 5.55 6.045 8.944 12.392 17.685 18.543 26.558 2.138 3.083 4.902 4.63 8.536 3.476 15.81-5.024 32.27-5.8 48.567-7.69 7.246-.84 9.236-2.971 9.325-10.172.127-10.307.032-20.618.032-30.927l1.513-.495c.542 1.401 1.54 2.797 1.555 4.204.129 11.309.072 22.62.072 34.566l18.945-2.64v-27.877c2.16.579 3.88 1.04 5.751 1.67.15 8.545.15 16.92.15 25.677l44.794-7.373.495-1.705-45.046-17.272V397.19c57.289-6.86 114.259-13.687 171.241-20.416.6-.07 1.353 1.156 1.998 1.744-13.565 8.247-26.945 16.133-40.072 24.417a6142 6142 0 0 0-69.651 44.622c-2.834 1.842-4.808 5.009-7.18 7.561l1.25 1.58c41.456-26.093 82.912-52.184 125.472-78.97-7.659 111.295-9.888 221.493-19.664 332.118-9.692-8.07-18.582-15.466-27.466-22.87-15.562-12.967-31.142-25.912-46.67-38.92-7.384-6.188-14.43-12.808-22.077-18.644-5.073-3.87-10.575-8.355-16.524-9.67-15.768-3.481-26.772-15.023-40.467-21.867-3.665-1.832-7.09-4.144-10.885-6.39-.432 2.443-.857 4.493-1.15 6.561-.953 6.746 1.542 10.974 8.2 15.01 6.43 3.899 12.673 8.108 19.504 12.506l-4.912 3.451c1.536 1.093 2.669 2.001 3.895 2.758 21.602 13.346 43.152 26.778 64.848 39.97 15.358 9.338 30.92 18.337 46.382 27.504 5.814 3.447 11.683 6.813 17.345 10.495 1.694 1.1 2.774 3.145 4.12 4.74-96.233 27.941-192.684 51.848-288.622 81.736 13.751-47.87 27.327-95.125 41.324-142.84 3.95-1.775 7.38-3.549 11.022-4.323 18.079-3.842 36.245-7.275 54.32-11.138 13.914-2.975 27.737-6.373 41.601-9.584l.496-2.114c-5.85-4.022-11.401-8.622-17.664-11.836-3.466-1.779-8.217-2.028-12.218-1.545-5.17.623-10.101 3.016-15.256 4.034-17.823 3.522-35.7 6.771-53.554 10.139-6.227 1.175-9.482 4.676-9.845 11.139-.242 4.304.04 8.637.087 12.957l-3.502-1.581c-13.808 41.431-21.047 84.83-36.68 125.628l-1.937-.392c0-1.401.005-2.802 0-4.203-.112-29.317-.117-58.635-.391-87.951-.106-11.299-.923-22.589-1.23-33.888-.226-8.351.252-12.335 10.589-11.844 2.633.125 5.347-1.452 9.043-2.549-2.736-1.21-4.563-2.016-7.584-3.351 8.484-1.886 15.806-3.699 23.209-5.084 3.885-.727 5.475-2.097 5.295-6.466-.426-10.304-.137-20.639-.137-31.809l-40.519 7.746v22.136c-1.732-1.37-2.952-2.334-4.44-3.81-.266-5.756-.266-11-.266-16.828zM588.62 526.5c0 17.154.15 34.31-.08 51.46-.083 6.114 1.89 10.085 7.534 13.06 11.965 6.311 23.58 13.286 35.335 19.995 2.626 1.498 5.237 3.022 8.455 4.88 1.482-9.18 3.385-17.271 3.969-25.457.861-12.086.916-24.237 1.08-36.364.43-31.615.733-63.231 1.072-94.847.008-.74-.162-1.483-.254-2.27-5.329 1.09-10.283 2.425-15.325 3.07-11.026 1.407-22.085 2.585-33.154 3.603-4.31.397-6.122 3.152-7.001 6.612-.807 3.179-1.131 6.548-1.184 9.84-.242 15.138-.314 30.278-.447 46.418m-89.447 13v42.84c1.076.059 1.565.184 2.01.095 18.615-3.739 37.186-7.723 55.87-11.08 4.265-.767 4.867-2.334 4.852-6.042-.125-29.972-.07-59.945-.07-89.918v-5.282l-62.662 10.309zm-44.17-40v91.267c4.254-.9 7.957-1.703 11.669-2.465 7.112-1.458 14.184-3.198 21.357-4.246 6.468-.945 8.184-2.761 8.147-9.231-.15-25.994-.134-51.989-.176-77.983-.006-3.97.056-7.942-.01-11.912-.082-5.018-2.803-7.793-7.527-9.216-2.786-.84-5.363-2.383-8.024-3.629-8.302-3.886-16.599-7.78-25.436-11.925zm59.59 84.532c-6.936.437-14.159 1.977-15.083 9.862-1.14 9.742-.272 19.72-.272 30.033l82.933-16.367-20.853-32.983c-4.937 1.584-9.375 3.531-14.014 4.39-10.56 1.957-21.219 3.379-32.711 5.065m50.41-78.532c0 20.799-.023 41.598.048 62.397.005 1.516.196 3.78 1.154 4.42 5.375 3.594 11.012 6.795 16.901 10.335V467.787l-18.103 1.471zm-88.144 129.99 18.983 13.68v-19.01c-3.899.662-7.65 1.111-11.302 1.98-2.804.666-5.48 1.862-7.68 3.35m106.164-46.748c-1.812-4.583-5.76-4.926-9.994-5.37 2.81 8.337 5.42 11.17 11.224 12.016-.369-2.054-.712-3.969-1.23-6.646"/>
  <path fill="#010101" d="M429.348 595.061c-25.293 15.815-50.554 31.68-75.897 47.413-7.697 4.779-15.62 9.194-24.598 14.455 0-12.998.504-24.756-.094-36.457-1.892-37.015-4.25-74.006-6.308-111.014-.619-11.118-.555-22.278-1.312-33.385-1.513-22.186-3.671-44.33-5.005-66.526-1.106-18.396-1.41-36.84-2.086-55.72 1.178.957 2.604 2.072 3.983 3.243 21.24 18.034 42.418 36.139 63.727 54.09 13.68 11.524 27.549 22.824 41.451 34.945a8457 8457 0 0 1 1.899 61.899c.366 13.78.07 27.602 1.039 41.337.942 13.353 4.003 26.55 2.737 40.073-.173 1.852.293 3.764.464 5.647"/>
  <path fill="#020202" d="M523.928 397.917c-9.597 1.564-18.695 3.49-27.893 4.474-15.185 1.622-30.417 3.052-45.666 3.655-4.651.184-9.594-2.21-14.096-4.141-7.254-3.113-14.138-7.086-21.382-10.226-18.03-7.815-36.325-15.032-54.22-23.137-12.066-5.465-23.633-12.031-35.452-18.718 86.181-6.513 172.126-16.003 259.323-19.106-1.166 5.506-2.027 10.51-3.301 15.407-3.305 12.698-6.816 25.343-10.199 38.022-2.482 9.306-4.787 11.525-14.293 12.166-10.775.726-21.577 1.046-32.82 1.604"/>
  <path fill="#030303" d="M365.916 656.95c22.473-5.183 44.491-10.441 66.592-15.328 5.735-1.268 11.726-1.373 17.21-1.97 0 18.27-.267 35.717.108 53.15.195 9.072 1.752 18.105 2.278 27.18.69 11.92 1.061 23.861 1.4 35.798.25 8.815.298 17.637.287 26.455-.003 2.73-.493 5.46-.76 8.191l-1.298.523-118.93-127.646c11.15-2.145 21.92-4.218 33.113-6.353"/>
  <path fill="#FC3440" d="M711.525 732.01c1.501 1.408 2.59 2.776 4.319 4.948l-73.777 17.962-.043.965c1.718.363 3.42.927 5.155 1.055 9.916.733 19.844 1.303 29.754 2.099 1.363.11 2.65 1.172 3.972 1.793-1.069 1.102-1.94 2.598-3.236 3.245-14.113 7.04-29.375 10.11-44.735 12.97-23.12 4.304-46.34 8.3-68.302 17.22-1.522.617-2.942 1.486-4.82 2.449l4.213 8.651-37.485 2.942c1.731 3.36 3.212 5.88 4.324 8.554.507 1.22.286 2.742.396 4.127-1.224.033-2.537.371-3.658.046-4.892-1.42-9.738-3.001-14.583-4.579-14.218-4.63-28.882-7.177-43.708-8.378-21.143-1.713-42.34-2.74-63.51-4.134-3.622-.239-7.218-.854-11.822-1.417 7.804-10.514 20.773-13.988 29.582-23.99-17.23-9.407-37.34-10.935-53.397-21.663l.07-1.698c4.02-.88 8.038-1.762 12.857-2.818-3.121-4.054-5.966-7.957-9.025-11.684-11.258-13.72-22.589-27.379-33.886-41.065-.422-.511-.953-1.018-1.142-1.618-.436-1.39-.693-2.837-1.022-4.26 1.52.205 3.39-.086 4.5.7 5.821 4.115 11.491 8.45 17.135 12.813 4.928 3.81 9.75 7.755 14.959 11.673a9134 9134 0 0 1 66.018 66.931c2.18 2.233 3.887 4.985 5.545 7.663 6.159 9.95 10.26 9.53 20.272 6.73 31.284-8.749 62.465-17.87 93.703-26.789 34.745-9.92 69.488-19.845 104.272-29.63 14.356-4.038 28.811-7.727 43.234-11.53 1.105-.29 2.304-.224 3.871-.283"/>
  <path fill="#020202" d="M732.353 375.403c-47.326 5.23-94.19 10.399-141.27 15.592V329.7c55.091 13.57 110.27 25.703 164.703 40.781l-.11 2.147c-7.62.905-15.24 1.809-23.323 2.775"/>
  <path fill="#FEFEFE" d="M429.48 595.015c-.303-1.837-.769-3.749-.596-5.6 1.266-13.525-1.795-26.721-2.737-40.074-.97-13.735-.673-27.557-1.04-41.337-.542-20.395-1.182-40.787-1.714-61.59.392-.358.72-.341 1.294-.375 4.7 1.629 9.22 3.118 13.594 4.953 8.408 3.53 10.677 10.654 10.683 18.984.012 18.467.028 36.933.033 55.4.005 21.73 0 43.46 0 65.852-5.726 1.179-11.992 2.469-18.68 3.748-.424-.01-.704-.008-.837.039"/>
  <path fill="#040404" d="m432.123 442.037-.79-.011c-7.147-4.761-14.035-9.513-20.912-14.28-1.638-1.134-3.456-2.11-4.829-3.513-20.193-20.656-45.95-34.813-65.57-56.144-1.97-2.141-4.525-3.744-6.347-6.62 4.73 1.989 9.506 3.875 14.181 5.984 24.745 11.162 49.46 22.392 74.197 33.571 7.381 3.336 14.862 6.46 22.153 9.981 1.343.649 2.782 2.723 2.822 4.177.218 7.978.015 15.967-.097 24.423-.053.47.027.385-.365.405-5.075.688-9.759 1.358-14.443 2.027"/>
  <path fill="#030303" d="M473.47 435.107c-2.501-1.248-5.242-1.97-6.523-3.747-4.226-5.858-7.924-12.096-12.082-18.59l110.59-13.658-3.834 25.798c-8.143.509-16.272.563-24.269 1.624-11.301 1.5-22.467 4.013-33.76 5.587-9.847 1.373-19.79 2.046-30.121 2.986m-22.845 178.948v19.957l-103.517 20.752-.901-1.932c3.246-2.531 6.295-5.378 9.77-7.543a9083 9083 0 0 1 75.085-46.262c6.933 4.892 13.248 9.96 19.563 15.028"/>
  <path fill="#FEFEFE" d="M499.512 651.288c-.254-4.503-.536-8.836-.294-13.14.363-6.463 3.618-9.964 9.845-11.139 17.854-3.368 35.73-6.617 53.554-10.139 5.155-1.018 10.085-3.41 15.256-4.034 4-.483 8.752-.234 12.218 1.545 6.263 3.214 11.815 7.814 17.664 11.836l-.496 2.114c-13.864 3.21-27.687 6.61-41.601 9.584-18.075 3.863-36.241 7.296-54.32 11.138-3.643.774-7.072 2.548-10.956 3.943-.458-.454-.56-.99-.87-1.708"/>
  <path fill="#0E0E0E" d="M703.99 677.004c-14.718-8.406-29.511-16.684-44.127-25.264-9.665-5.675-19.004-11.902-28.645-17.619-2.611-1.548-5.855-1.989-8.686-3.22-2.286-.994-4.387-2.413-7.74-4.302 8.464-2.192 15.373-4.058 22.34-5.675.773-.18 1.958.965 2.813 1.666a22299 22299 0 0 1 48.394 39.742c5.612 4.625 11.141 9.352 16.39 14.33-.319.297-.74.342-.74.342"/>
  <path fill="#040404" d="M588.085 400.77a26824 26824 0 0 1-4.524 32.456l-18.259-6.465 6.28-28.183c5.04 0 10.139-.043 15.234.075.453.01.881 1.072 1.269 2.116"/>
  <path fill="#090909" d="M586.174 367.001v23.636l-13.742 5.318 12.534-46.466 1.208.03z"/>
  <path fill="#E5E5E5" d="M450.588 614.042c-6.277-5.055-12.592-10.123-19.259-15.242-.351-.051-.412-.342-.397-.49 6.52-.576 13.025-1.004 19.823-1.451 0 5.829 0 11.072-.13 16.772-.13.458-.075.398-.037.411"/>
  <path fill="#1F1F1F" d="M454.619 437.448c-1.582-5.903-2.992-11.432-4.403-16.96l1.66-1.03 14.758 19.422c-4.758-.424-8.302-.74-12.015-1.432"/>
  <path fill="#151515" d="M462.873 626.118a798 798 0 0 1 4.156 4.496l-11.222 2.613v-12.97l1.221-1.027c1.864 2.212 3.728 4.424 5.845 6.888"/>
  <path fill="#1F1F1F" d="M704.208 677.262c-.218-.258.202-.303.41-.265 4.028 1.653 7.702 3.444 9.966 6.939l-1.11 1.362a977 977 0 0 1-9.266-8.036"/>
  <path fill="#FDA532" d="M321.852 615.46c-.242-.723-.414-1.814-.4-3.136.282.769.376 1.767.4 3.135"/>
  <path fill="#030303" d="M734.063 293.18c4.287-20.837 8.505-41.257 12.888-62.474.728 1.03 1.68 1.793 1.846 2.7 2.295 12.522 4.4 25.08 6.825 37.576.244 1.259 2.079 2.697 3.474 3.17 13.028 4.406 26.121 8.62 40.393 13.281l-72.17 31.935a6351 6351 0 0 0 6.744-26.187m-61.775-48.87c-10.324 4.054-20.994 6.394-29.5 13.524-.81.68-2.107.79-3.186 1.138-4.37 1.415-8.863 2.532-13.092 4.287-9.285 3.855-18.437 8.03-28.346 12.383V159.84l.573-.178 22.508 90.577c12.978-2.566 25.755-5.079 38.525-7.624 5.19-1.034 10.35-2.24 15.563-3.133 1.122-.192 2.416.625 3.63.977-.863.788-1.625 1.756-2.617 2.315-1.131.638-2.468.91-4.058 1.537"/>
  <path fill="#090909" d="M501.808 267.872c9.983-1.596 19.545-3.309 29.124-4.916 1.411-.237 2.906.023 4.361.054-1.153 1.042-2.134 2.54-3.488 3.055-13.549 5.152-27.159 10.143-41.165 15.331-7.634-16.555-17.958-31.455-23.505-48.608l1.834-1.244c6.678 7.883 13.244 15.866 20.078 23.612 3.89 4.41 8.217 8.435 12.761 12.716"/>
  <path fill="#151515" d="M613.457 818.434c.07-.045-.07.045 0 0"/>
  <path fill="#FEFEFE" d="M588.62 526c.133-15.64.205-30.78.447-45.917.053-3.293.377-6.662 1.184-9.841.879-3.46 2.69-6.215 7.001-6.612 11.07-1.018 22.128-2.196 33.154-3.604 5.042-.644 9.996-1.979 15.325-3.069.092.787.262 1.53.254 2.27-.339 31.616-.643 63.232-1.072 94.847-.164 12.127-.219 24.278-1.08 36.364-.584 8.186-2.487 16.277-3.969 25.457-3.218-1.858-5.83-3.382-8.455-4.88-11.755-6.709-23.37-13.684-35.335-19.994-5.643-2.976-7.617-6.947-7.535-13.061.23-17.15.08-34.306.08-51.96"/>
  <path fill="#FCFCFC" d="M499.173 539v-58.578l62.662-10.31v5.283c0 29.973-.055 59.946.07 89.918.015 3.708-.587 5.275-4.853 6.042-18.683 3.357-37.254 7.341-55.869 11.08-.445.089-.934-.036-2.01-.094z"/>
  <path fill="#FEFEFE" d="M455.003 499v-38.84c8.837 4.144 17.134 8.04 25.436 11.925 2.661 1.246 5.238 2.79 8.024 3.63 4.724 1.422 7.445 4.197 7.528 9.215.065 3.97.003 7.941.01 11.912.041 25.994.025 51.989.175 77.983.037 6.47-1.679 8.286-8.147 9.23-7.173 1.049-14.245 2.789-21.357 4.247-3.712.762-7.415 1.565-11.669 2.465z"/>
  <path fill="#FDFDFD" d="M515.03 584.008c11.055-1.662 21.714-3.084 32.274-5.04 4.639-.86 9.077-2.807 14.014-4.39l20.853 32.982-82.933 16.367c0-10.313-.869-20.29.272-30.033.924-7.885 8.147-9.425 15.52-9.886"/>
  <path fill="#FEFEFE" d="M565.003 505v-35.742l18.103-1.47v114.864c-5.889-3.54-11.526-6.741-16.901-10.334-.958-.64-1.149-2.905-1.154-4.421-.071-20.799-.048-41.598-.048-62.897"/>
  <path fill="#FAFAFA" d="M590.106 434.845a21088 21088 0 0 0 45.017 17.3l-.495 1.705-44.794 7.373c0-8.757 0-17.132.181-25.983.18-.477.12-.424.091-.395M476.593 635.226c2.466-1.224 5.143-2.42 7.947-3.086 3.651-.869 7.403-1.318 11.302-1.98v19.01c-6.594-4.752-12.788-9.216-19.25-13.944"/>
  <path fill="#F2F2F2" d="M432.28 442.343c4.527-.975 9.211-1.645 14.333-2.368.584 3.138.73 6.33.918 10.413-5.536-2.838-10.315-5.289-15.25-8.045m150.829 146.78c.432 2.296.775 4.21 1.144 6.265-5.804-.845-8.415-3.679-11.224-12.016 4.233.444 8.182.787 10.08 5.751"/>
</svg>
