<svg xmlns="http://www.w3.org/2000/svg" width="1883" height="2000">
  <path d="M0 1069h1587v931H0z"/>
  <path d="M659 69h210v66h411V69h176v66h48v335h135v211h-143v62h-16v104h-163V743H892v109H719V743H486v-76H357v28h-78v96h104v-41h63v107H211V368h217V135h231z" fill="#FFF"/>
  <path d="M1587 886h0v1114h-123v-931H0V924h1587z" fill="#121212"/>
  <path d="M1227 510h260v130h-260z" fill="#FF5A13"/> 
  <path d="M704 852h225v95H704z" fill="#5F5F5F"/>
  <path d="M667 444h301v36H667z"/>
  <path d="M1309 847h182v80h-182z" fill="#5F5F5F"/>
  <path d="M1278 431h193v35h-193z"/>
  <path d="M720 520h270v150H720z" fill="#5F5F5F"/> 
</svg>
