<svg xmlns="http://www.w3.org/2000/svg" viewBox="0 0 2098 551" xml:space="preserve">
  <path fill="#FFF" d="M310.068 352.045h5.688c.07-1.442.136-2.782-.038-5-.238-13.857-.238-26.835-.238-39.929h-3.55s.011-.082-.042-.525c-.053-3.378-.053-6.314-.053-9.816-17.536-.61-34.762-1.172-51.982-1.865-1.598-.064-3.222-.817-4.727-1.489-1.566-.698-2.989-2.401-4.5-2.432-10.625-.217-21.258-.093-31.888-.142-1.44-.006-3.782.098-4.171-.648-2.303-4.423-6.627-3.666-10.31-4.565-.098-6.216-.194-12.431-.614-19.546-.104-7.486.245-14.07.305-20.658.104-11.387.029-22.776.029-34.164l-3.927-.344c-.203-7.63-.406-15.258-.422-23.63.259-16.253.331-31.762.404-47.271 1.065-.053 2.13-.106 4.007-.253 4.72.027 8.644.39 12.526.125 1.227-.084 2.338-1.852 3.503-2.849 1.351-.023 2.703-.047 4.91-.269 5.168-.198 9.482-.198 13.828-.198l.274-3.523c8.679-.684 17.358-1.367 26.896-2.287 6.5-.236 12.14-.236 17.818-.236l.283-3.48c8.01-.685 16.022-1.37 24.892-2.295 5.838-.24 10.817-.24 15.836-.24l.275-3.462c1.672-.027 3.344-.054 5.885-.289 5.846-.208 10.824-.208 15.837-.208l.278-3.503c8.361-.672 16.722-1.345 25.773-2.027-7.075 8.023-14.884 16.015-22.59 24.105-4.963 5.211-9.774 10.566-14.712 15.92 4.522 3.571 9.427 7.273 14.122 11.226 2.459 2.07 4.431 4.712 6.852 6.836 1.279 1.123 3.046 1.69 4.594 2.509 2.856 3.201 5.712 6.403 8.36 10.062-2.178 1.061-4.13 2.117-6.117 2.184-6.769.228-13.557-.057-20.32.254-1.41.065-2.742 1.844-4.11 2.833-4.984.025-9.967.05-15.85.393-8.491.103-16.083-.201-23.678-.298-8.4-.107-16.801-.025-25.28-.025v4.047s-.063-.055-.45.096c-1.138.84-2.522 1.51-2.544 2.22-.174 5.553-.191 11.117.042 16.666.033.778 1.688 1.488 2.592 2.23 0 0 .126.365.25.929.93 1.647 1.75 3.672 2.543 3.663 5.817-.072 11.628-.551 17.441-.902 14.066.982 28.13 1.982 42.199 2.933 2.815.19 5.643.196 8.633 1.078 1.733 1.542 3.293 2.925 4.867 2.942 9.125.097 18.254-.127 27.381-.242.712.104 1.425.21 2.576.724.127 1.811.292 3.72-.573 4.532-6.382 5.997-12.974 11.772-19.492 17.625-2.77 2.487-5.52 4.995-8.283 7.49-3.47 3.133-6.942 6.263-10.679 9.633 5.557 4.055 10.437 7.47 15.135 11.119 1.807 1.403 3.17 3.367 4.792 5.02.757.772 1.623 1.987 2.479 2.021 5.878.237 7.658 5.49 11.126 8.682a22.2 22.2 0 0 0 4.873 3.383c2.075 1.062 4.34 1.756 6.521 2.61.15 3.765.22 7.537.487 11.294.107 1.514.643 2.997.845 4.97-.384 2.079-.83 3.681-.84 5.287-.055 8.322.001 16.646.019 24.97 0 0-.067-.035-.444-.024-2.518.703-5.05.887-6.73 2.178-6.68 5.135-13.134 10.568-19.594 15.982-5.012 4.2-4.79 7.493.718 11.133 6.883 4.548 13.974 8.8 20.673 13.6 2.27 1.628 3.624 4.536 4.92 6.236l-8.865 4.669c-1.978.11-3.957.221-6.762.428-4.408-.032-8.011-.421-11.561-.143-1.23.097-2.328 1.853-3.487 2.851-2.367.068-4.735.137-7.94.302-4.583-.032-8.342-.385-12.065-.15-1.054.067-2 1.852-2.995 2.848-1.675.024-3.351.047-5.894.28-5.182.208-9.497.208-13.846.208l-.273 3.502c-8.678.685-17.355 1.371-26.894 2.29-6.502.234-12.144.234-17.824.234l-.278 3.48c-1.35.025-2.698.05-4.9.277-4.834.201-8.817.201-12.831.201l-.274 3.517c-9.007.687-18.014 1.373-27.876 2.286-4.234.05-7.613-.128-10.993-.305-.068-1.705-.136-3.41-.304-5.944-.033-16.578.033-32.327.099-48.075 0 0 .077.013.531 0 3.984-.723 8.553 2.598 10.896-2.707 2.268-.076 4.537-.152 7.683-.446 5.855-.218 10.834-.218 15.85-.218l.276-3.482c1.705-.07 3.41-.14 5.942-.304 4.734.032 8.658.402 12.54.142 1.227-.082 2.34-1.85 3.506-2.848 2.318-.203 4.636-.405 7.639-.428 2.504.257 4.424.732 6.115.304 1.926-.486 3.648-1.778 5.459-2.72 2.302-.12 4.604-.241 7.736-.458 4.902.032 8.984.366 13.037.146 1.053-.058 2.012-1.849 3.014-2.843"/>
  <path fill="#E5E6E6" d="M1597.042 294.935c-.683-7.015-1.367-14.03-2.321-21.893-.039-5.47.194-10.093.428-14.741l-4.093-.38c-.69-7.671-1.38-15.344-2.348-23.867-.043-4.805.192-8.759.427-12.728l-4.085-.396c-.239-2.638-.478-5.276-.526-8.592-.163-4.104 2.772-8.37-2.336-10.584-.064-.99-.129-1.979.275-3.398 2.438-.39 4.506.043 6.354-.416 1.91-.474 3.606-1.813 5.396-2.773 4.033-.45 8.067-.9 12.584-1.228 2.386.425 4.284.963 6.19.992 6.917.106 13.836.042 20.628.042l.816 6.041c3.304 0 6.431.099 9.548-.032 2.425-.1 4.878-.301 7.246-.8 2.417-.508 4.704-1.863 7.12-2.095 7.182-.69 14.398-1.01 21.601-1.475 3.1 1.099 6.202 2.198 9.926 3.683 9.03.387 17.436.387 26.124.387v6.397c-.01 13.143-.09 26.288.057 39.43.02 1.774.899 4.858 1.873 5.07 3.677.801 3.117 3.24 3.117 5.678-.005 18.634.083 37.268-.072 55.9-.033 3.93-.059 7.31 4.97 7.532.53 6.418-.141 12.207 3.548 18.254 4.24 6.952.735 16.28 5.96 24.378 3.697 5.733 2.42 14.62 3.647 22.052.23 1.397 1.79 2.576 2.737 3.855 0 0 .105.395.197 1.007-.025 2.542-.142 4.471-.28 6.743-4.1 0-7.914-.274-11.651.136-1.47.162-2.773 1.855-4.151 2.85-3.1.368-6.2.737-9.807.997-8.021-.376-15.534-.724-23.05-.783-.71-.005-1.433 1.81-2.15 2.78h-3.973c-.67-8.686-1.336-17.333-2.303-26.869-.3-9.842-.3-18.797-.3-27.845l-3.313-.318c-.03-2.653-.06-5.306-.378-8.842-.01-5.777.268-10.671.59-16.337l-4.26 1.32c-2.107-.086-4.214-.172-6.86-.524-8.279-.267-16.017-.267-24.059-.267 0 5.704-1.82 12.124.451 16.344 2.973 5.524 1.937 10.656 2.433 15.98.245 2.632-.912 6.421.448 7.726 3.737 3.589 2.389 7.643 2.53 11.597.14 3.928.03 7.864.03 11.942h4.105s-.022.075.021.536c-.733 6.517 1.578 13.151-3.314 18.44-2.94.065-5.88.13-9.708.472-9.18.279-17.472.279-25.83.279l-.32 3.36c-5.054.062-10.107.124-15.64-.307-.45-38.124-.42-75.755-.408-113.385 0-.3-.26-.6-.43-.97zm64.15-52.718h-19.422l-5.862 5.3c.656 5.418-1.795 11.787 3.981 16.336.626.493.37 2.194.4 3.337.053 2.08.015 4.163.015 6.74 2.737-1.07 4.835-1.89 7.62-2.303a56 56 0 0 1 4.88.155h22.031c-.132-2.037-.227-3.497-.059-5.488-.06-.384-.119-.768-.01-2.096V241.9c-1.805.479-3.322.881-5.615 1.107a295 295 0 0 1-7.959-.791"/>
  <path fill="#E4E5E5" d="M1192.068 341.995c-.35 1.712-.7 3.425-1.513 5.561-1.495 1.39-3.434 2.37-3.42 3.32.125 8.71.589 17.414.954 26.12l-1.194 10.014c-1.982 0-3.913 0-6.185-.418-1.02-1.477-1.718-3.468-2.38-3.456-8.777.159-17.55.598-26.325.967l-21.79-3.786c0-1.537 0-3.29.773-5.2 1.519-1.067 2.928-1.992 2.907-2.884-.187-8.08-.625-16.153-.99-24.228 1.1-14.906 2.198-29.811 4.076-44.88 1.526-1.075 2.935-2 2.915-2.893-.19-8.412-.626-16.819-.99-25.227 1.098-14.906 2.197-29.811 4.075-44.881 1.525-1.076 2.935-2 2.915-2.895-.189-8.744-.616-17.484-.975-26.225.376-3.334.753-6.668 1.549-10.532 1.127-2.207 2.366-3.86 2.445-5.566.262-5.62.104-11.258.107-16.889 5.221.055 10.442.11 15.84.954 1.087 1.537 2.01 2.95 2.903 2.931 8.747-.185 17.488-.608 26.231-.964 1.934.444 3.867.887 5.922 2.077 1.032 1.494 1.956 2.906 2.85 2.888 9.079-.189 18.153-.61 27.228-.967 5.692.264 7.49 4.912 9.943 8.825 1.47 2.345 2.95 4.685 4.803 7.562.38 2.405.38 4.274.38 6.54h3.948c1.509 4.47 3.045 8.618 7.525 11.495 2.249 1.444 2.787 5.38 4.423 7.984 2.72 4.329 5.981 8.334 8.482 12.776 2.111 3.749 3.467 7.923 4.952 12.6-.297 2.659-.797 4.721-.373 6.571.478 2.08 1.79 3.97 2.739 5.942.072 1.623.144 3.247.458 5.723.024 5.123-.195 9.393-.416 13.73l4.085.392c.284 1.084.569 2.168.568 3.786-.38 3.055-.474 5.576-.569 8.098-3.873-.17-7.746-.339-12.338-.772-6.232-.742-11.744-1.22-17.351-1.707v23.612s-.194.416-.268 1.024c-9.751-.261-19.416-1.565-29.11-1.863-7.92-.243-15.876.714-23.815 1.139l-3.871-.518c-.094 1.977-.168 3.548-.684 5.607-1.118 1.306-2.395 2.136-2.377 2.937.195 8.528.595 17.051.938 25.576m36.95-101.939c4.393-9.833 2.393-12.96-8.282-12.814-3.313.045-6.635.187-9.932.503-3.403.327-8.267-.242-9.785 1.698-1.833 2.344-.822 6.914-1.735 10.906-.732.75-2.081 1.486-2.098 2.252-.162 7.249-.097 14.503-.097 22.079 2.746.144 4.878.19 6.995.383 3.942.359 8.37-.193 11.697 1.452 4.787 2.367 9.114 2.047 14.69.939-.657-8.995-1.304-17.847-1.452-27.398"/>
  <path fill="#E5E6E6" d="M774.048 306.932c-.374-3.093-.749-6.187-1.02-9.796.377-8.023.728-15.53.79-23.038.005-.712-1.807-1.44-2.775-2.16-.026-2.656-.053-5.313-.364-8.856-.284-10.506-.284-20.126-.284-29.835l-3.343-.32-.938-41.197c5.6-.722 9.907-1.277 14.727-1.725 8.026.386 15.538.746 23.052.816.712.006 1.441-1.811 2.162-2.782 3.316-.238 6.631-.476 10.656-.513 9.341-.55 18.444 3.297 26.59-2.504.672-.478 1.947-.13 2.941-.126 8.316.03 16.631.081 24.947.09 1.154 0 2.945.232 3.36-.379 2.794-4.103 6.876-2.4 10.464-2.528 5.483-.196 10.978-.138 16.466-.052 4.907.076 9.894.624 13.44-3.903.038.7.075 1.4.317 2.885.058 2.538.006 4.304-.258 6.038-.491 3.232.983 4.352 4.006 3.977.645 4.25 1.504 8.48 1.873 12.753.347 4.03-.975 6.58-5.769 7.512-5.007.973-9.713 3.504-15.206 5.753-3.601.492-8.234-2.805-7.85 3.98-2.076.65-4.15 1.3-7.019 2.192-3.759.87-9.092-3.857-8.934 3.838a31496 31496 0 0 1-40.058 15.26c-4.032.049-7.257-.189-10.896-.456 0 4.749.216 8.734-.067 12.682-.229 3.192 1.521 3.545 3.892 3.531.378 3.093.757 6.185 1.027 9.79-.377 9.347-.716 18.18-.789 27.015-.006.723 1.8 1.462 2.764 2.194.375 3.092.75 6.184 1.016 9.792-.391 7.884-.77 15.25-.818 22.619-.006.783 1.916 1.58 2.944 2.37 0 0-.006.08.032.537.037 9.719.037 18.982.037 28.617 6.86 0 13.321.012 19.782-.01 1.493-.004 3.719.482 4.355-.29 3.567-4.326 8.283-2.188 12.507-2.705 4.707-.577 9.963 1.712 13.959-2.85.518-.592 2.233-.158 3.393-.16 4.995-.003 9.992.068 14.985-.025 1.434-.026 2.887-.415 4.282-.81 2.2-.62 4.358-1.387 6.534-2.092.013 6.3.07 12.602.028 18.902-.038 5.739-2.912 9.567-8.737 10.01-14.397 1.095-27.183 7.34-41.258 12.204-3.722.331-8.33-2.97-7.956 3.849-4.11 1.244-8.22 2.488-12.892 3.474-5.552-.35-10.551-.646-15.524-.395-1.27.064-2.454 1.857-3.677 2.855-2.768.37-5.535.74-8.808 1-8.351-.377-16.197-.72-24.045-.781-.708-.006-1.43 1.811-2.147 2.782-1.693.02-3.387.04-5.568-.421-.44-7.125-.22-13.777-.484-20.41-.057-1.43-1.857-2.793-2.853-4.187-.026-2.658-.05-5.316-.36-8.86-.286-9.174-.286-17.46-.286-25.837l-3.34-.32c-.379-3.092-.756-6.184-1.03-9.791.373-9.345.713-18.175.787-27.006.006-.725-1.798-1.465-2.762-2.197"/>
  <path fill="#E5E5E5" d="M680.93 415.951c-5.138.823-8.324-2.249-11.72-6.208-1.59-1.596-2.63-3.053-4.031-3.618-1.212-.488-2.832.036-4.272.113-9.976-7.567-19.961-15.12-29.916-22.715-1.431-1.092-3.078-2.154-3.99-3.624-2.33-3.753-5.464-5.534-9.96-5.92-.086-53.78-.01-106.776-.15-159.771-.01-3.835.728-6.576 4.064-8.447 3.693-.266 7.387-.533 11.966-1.101 2.021-.1 3.152.242 4.293.28 21.448.722 42.897 1.402 64.346 2.112 1.481.05 3.81-.262 4.295.508 2.831 4.488 7.318 2.982 11.147 3.378 9.201.95 18.438 1.549 28.06 2.321v22.407l3.895.4c.078 3.086.157 6.174-.046 9.642-29.113.381-57.944.381-86.85.381 0 9.36-.133 18.005.125 26.64.046 1.522 1.728 2.995 2.654 4.491.064.68.127 1.358.383 2.828.191 6.163.191 11.535.191 17.186 6.627-1.243 11.15-7.624 18.277-6.438.284.047.649-.669 1.038-.94 1.632-1.132 3.162-2.87 4.958-3.222 5.686-1.118 9.314-6.471 15.965-6.354 4.34.077 8.747-3.589 13.799-5.884l1.715 35.25L726 310c1.015 2.218 2.212 4.373 3.006 6.667 1.461 4.224 2.685 8.53 4.177 13.347-12.19.721-23.19 1.371-35.089 2.307-9.44.286-17.98.286-26.908.286l.33 3.568c-.466 4.626-1.185 9.245-1.308 13.88-.083 3.094.684 6.212 1.17 10.112 2.062 0 4.31 0 6.743.263-2.085.6-4.355.936-6.746 1.29v19.143c5.835 0 11.31.07 16.78-.068.938-.024 1.857-.936 2.778-1.449 1.4-.777 2.743-2.118 4.2-2.256 8.945-.843 17.917-1.385 26.873-2.112 1.24-.1 3.35-.436 3.512-1.063.991-3.817 3.966-2.78 6.441-3.046 3.126-.336 6.773.218 9.269-1.22 5.799-3.342 11.47-2.21 17.76-1.278 0 2.058-.236 4.056.058 5.974.404 2.633 1.21 5.204 1.843 7.801.427 3.39.855 6.779 1.16 10.652-.62 4.617-1.12 8.75-1.623 12.909-2.707.403-6.156-.24-5.483 4.253-15.31.692-30.622 1.383-46.84 2.358-9.533.283-18.158.283-26.853.283-.103 1.077-.21 2.214-.32 3.35"/>
  <path fill="#E4E5E5" d="M473.075 367.996c-.4 3.311-.801 6.623-1.572 10.565-.751 4.494-1.753 8.42-1.365 12.205.553 5.383-1.812 6.466-6.457 6.542-5.624.092-11.606-.24-16.77 1.537-8.658 2.98-16.959 1.63-25.8.805 0-5.452-.072-10.59.066-15.723.025-.951.887-1.886 1.386-2.816.825-1.536 2.29-3.016 2.405-4.597.832-11.455 1.37-22.931 2.073-34.396.077-1.248.362-3.376.984-3.55 4.09-1.148 2.767-4.314 2.956-6.935.332-4.61-.697-9.988 1.356-13.627 2.383-4.225 2.611-8.233 2.917-12.54.377-5.313.598-10.637.954-15.952.29-4.314-.865-9.844 1.366-12.66 3.865-4.879 3.099-9.807 3.488-14.945.142-1.888.62-3.77 1.125-5.606.494-1.796 1.63-3.502 1.751-5.297.27-3.978.007-7.988.108-11.982.044-1.782.28-3.595.716-5.322.6-2.374 1.887-4.636 2.136-7.024.43-4.118-1.225-9.363.763-12.183 2.611-3.705 2.107-7.063 2.328-10.693.17-2.768.034-5.554.034-8.628 6.606.237 12.834-1.623 18.318 2.653.695.542 1.916.59 2.887.57 6.667-.14 13.408-1.08 19.982-.394 12.597 1.314 26.492-4.351 37.45 6.458 7.954.371 14.55 4.524 21.663 7.408 6.76 2.742 9.42 5.29 9.68 12.4.346 9.483.721 18.967 1.286 28.44.444 7.452 1.195 14.887 1.809 22.33-1.052 14.96-2.104 29.922-3.62 45.353-2.7.952-4.975 1.973-7.162 1.812-6.899-.505-13.657.844-20.79-1.833-7.225-2.712-16.406 2.457-23.349-4.245H475.72l1.358 15.869c-.354 1.712-.707 3.424-1.523 5.56-1.496 1.392-3.434 2.37-3.42 3.323.124 9.042.58 18.08.94 27.118m8.943-108.193c-.367 1.1-.829 2.178-1.087 3.302-1.77 7.706 1.916 11.983 9.584 11.249 1.122-.108 2.277.192 3.418.197 5.574.023 11.147.01 16.905.01 0-6.876.117-13.514-.09-20.142-.046-1.464-1.238-2.892-2.136-5.076-.844-1.08-1.66-3.068-2.537-3.095-7.906-.243-15.822-.143-23.721-.143 0 4.757 0 8.89-.336 13.698m935.891-48.799c1.1-10.866 2.2-21.732 3.29-32.52 14.618-.833 29.268-1.668 44.428-2.03-.242 23.272-1.208 46.065-1.676 68.868-.344 16.812.045 33.639-.114 50.456-.024 2.522-1.198 5.052-1.958 7.542-.524 1.72-1.792 3.375-1.802 5.064-.117 19.825-.056 39.652-.05 59.479.003 8.05-1.026 9.013-9.283 9.164-2.112.039-5.745-.142-6.064.732-1.413 3.872-4.512 2.662-7.055 3.24-8.39 1.904-17.78-.65-25.245 5.676l-1.574-28.722c.414-5.302.827-10.605 1.683-16.42 1.136-2.169 2.426-3.823 2.43-5.479.033-15.11-.132-30.22-.324-45.329-.02-1.57-.585-3.135-.898-4.702.498-5.906.995-11.812 2.277-17.892 1.54-1.756 2.916-3.325 2.95-4.921.182-8.632.15-17.272-.035-25.905-.189-8.77-.642-17.534-.98-26.3"/>
  <path fill="#E5E5E5" d="M1761.045 235.936c-.682-13.585-1.34-27.171-2.087-40.753-.064-1.172-.713-2.312-.973-3.944.38-3.423.643-6.37.906-9.315 0 0 .075-.007.524-.032 7.384-.024 14.318-.024 21.27-.024.15-1.53.264-2.677.378-3.825 3.05-.242 6.1-.485 9.772-.493 4.045.233 7.466.233 11.155.233 0 10.858-.059 20.828.065 30.796.018 1.434.79 2.916 1.433 4.27.724 1.524 2.393 2.903 2.446 4.388.258 7.318.06 14.65.14 21.977.046 4.351-1.21 9.059 3.222 12.369.588.439.595 1.844.628 2.81.727 21.278 1.416 42.558 2.125 63.837.044 1.313-.259 3.47.364 3.803 6.128 3.274 3.374 9.032 3.864 13.695.745 7.086-.534 14.628 1.403 21.291 3.2 11 1.758 21.674 1.052 32.952-5.025 0-9.833-.23-14.595.138-1.46.112-2.794 1.86-4.186 2.858-3.09.394-6.182.787-9.752 1.058a785 785 0 0 0-11.629-1.393l-4.394-8.856c-.416-2.713-.832-5.425-1.139-8.65.376-8.683.717-16.854.782-25.027.005-.713-1.808-1.44-2.776-2.16-.028-3.317-.055-6.634-.382-10.843-.3-9.516-.3-18.138-.3-26.856l-3.316-.304c-.694-14.31-1.387-28.618-2.374-43.832-.294-10.526-.294-20.146-.294-29.862z"/>
  <path fill="#E5E6E6" d="M1389.98 390.031c-.719 1-1.438 2-2.98 3.224-9.102.225-17.381.225-25.745.225l-.324 3.471c-3.303.253-6.607.505-10.588.564-6.545-1.193-13.096 1.168-18.17-3.742-.418-3.375-.835-6.749-1.15-10.637.377-9.019.722-17.524.795-26.03.007-.715-1.807-1.445-2.775-2.167-.027-2.328-.053-4.656-.36-7.864-.282-9.5-.282-18.12-.282-26.828l-3.35-.321c-.405-3.098-.811-6.195-1.123-9.79.365-.896.869-1.292.872-1.692.102-12.435.229-24.87.087-37.303-.013-1.08-1.85-2.14-2.84-3.208-.262-8.628-.524-17.256-.587-26.578.199-19.1.199-37.506.199-56.334 4.977 0 9.121.258 13.202-.137 1.475-.143 2.798-1.854 4.19-2.849 2.455-.183 4.91-.365 7.993-.66 9.95 2.254 9.953 2.254 9.953 12.363.001 24.999-.151 49.999.139 74.994.053 4.567-2.977 10.478 3.628 13.498.175.08.18.62.195.948.277 5.76.45 11.224 2.688 17.016 3.54 9.158 4.812 19.19 7.065 28.848.15.641.512 1.23.715 1.862.936 2.922 2.1 5.8 2.71 8.79.832 4.07-.088 9.248 2.123 12.115 3.497 4.533 3.746 9.147 4.001 14.157.015.286.279.676.536.814 4.14 2.22 3.481 6.434 4.07 10.042.69 4.24 1.038 8.535 1.545 12.9 1.28.11 2.425.21 3.568.31"/>
  <path fill="#E4E5E5" d="M984.932 303.004c.376-2.673.753-5.346 1.572-8.49 1.113-1.293 2.384-2.132 2.363-2.938-.2-7.86-.618-15.713-.973-23.569.387-3.332.775-6.665 1.606-10.482 1.116-1.307 2.387-2.143 2.368-2.948-.198-8.193-.606-16.381-.955-24.57.383-2.347.767-4.694 1.562-7.54 1.486-4.058 2.559-7.618 3.514-10.788 15.555.61 31.484 1.237 47.85 1.88-1.202 5.147 3.904 2.545 5.587 4.025l1.48 4.517c-.614.434-1.227.867-2.333 1.585-1.2 1.41-2.427 2.488-2.534 3.668-.809 8.944-1.35 17.91-2.112 26.859-.108 1.269-.894 2.507-1.484 3.702-.753 1.526-2.208 2.945-2.335 4.494-.38 4.625 1.207 10.05-.71 13.744-2.29 4.413-2.369 8.41-2.307 12.838.02 1.488.374 3.675-.429 4.354-4.236 3.583-2.045 8.29-2.694 12.484a898 898 0 0 1-3.566 21.214c-.198 1.104-1.026 2.082-1.443 3.164-.704 1.825-1.688 3.649-1.88 5.542-.368 3.618 1.107 8.31-.675 10.687-2.606 3.476-2.31 6.69-2.36 10.239-.05 3.632-.01 7.265-.01 10.599l-7.014 1.887c-.678-.881-1.333-1.782-2.039-2.641-6.24-7.597-7.202-7.535-16.002-3.192-5.116 2.524-10.743 4.012-16.798 6.204 0-13.067 0-25.14.79-37.394 1.535-1.09 2.944-2.014 2.925-2.908-.185-8.745-.609-17.485-.964-26.226m9.042-148.302c3.584.504 7.169 1.008 10.91 2.285 1.068 1.521 1.993 2.934 2.887 2.915 9.744-.208 19.483-.641 29.224-1.013 17.236 1.102 34.473 2.205 51.87 4.089 1.73 1.536 3.28 2.882 4.877 2.94 6.678.245 13.37.103 20.436.103v10.084s-.081.004-.443.158c-1.177 1.53-2.15 2.838-2.756 4.3-.484 1.162-.323 2.59-.794 3.76-.97 2.4-2.637 4.606-3.177 7.076-1.092 4.987-1.623 10.097-2.526 16.095l-144.466-2.964c0-5.99.208-11.952-.137-17.882-.094-1.617-1.85-3.136-2.844-4.7-.666-5.302-1.483-10.59-1.942-15.91a57.7 57.7 0 0 1 .047-10.437c.091-.948 1.76-2.353 2.823-2.47 2.02-.222 4.127.334 6.745 1.14 10.12.526 19.693.478 29.266.43"/>
  <path fill="#E5E6E6" d="M1838.944 389.96c-4.412.315-8.823.63-13.565.676-1.284-7.58.872-14.91-2.967-22.393-2.302-4.487-.115-11.128-.572-16.75-.492-6.047-2.052-12.008-2.526-18.055-.45-5.737-.096-11.536-.096-17.307l1.03-.785c1.846 5.866 6.3 4.547 10.262 4.68 3.112.104 6.256.123 9.32.6 3.49.542 6.872 1.794 10.365 2.286 3.105.437 7.422-.994 9.213.615 3.488 3.135 7.044 2.329 10.712 2.438 3.322.098 6.652-.079 9.978-.134 0 0-.035.064.003.498-.517 3.402 1.34 3.78 3.583 3.719 4.475-.122 8.95-.258 13.425-.387a10.4 10.4 0 0 1 2.523.793c1.121 2.717 2.178 5.03 2.29 7.386.267 5.6.087 11.22.087 16.836l3.944.393 1.238 27.964c-2.388 0-4.3 0-7.109.255-9.186.255-17.476.255-25.83.255l-.32 3.408c-3.095.373-6.189.746-9.791 1.011-8.022-.376-15.535-.724-23.05-.783-.709-.005-1.431 1.811-2.147 2.781"/>
  <path fill="#E4E5E5" d="M1526.93 226.948c-3.763.39-7.524.779-11.797 1.072-2.08-.392-3.646-.932-5.217-.944-10.135-.078-20.272-.04-30.408-.04h-9.569l2.106-51.006c12.222.724 24.445 1.447 36.831 2.95 1.072 1.528 1.996 2.938 2.886 2.918 7.415-.17 14.824-.604 22.235-.958 2.025.372 4.05.744 6.573 1.53 2.137 1.125 3.755 2.38 5.42 2.444 5.362.21 10.742-.02 16.115-.08 0 0-.003.07.019.518.35 3.513.678 6.578 1.005 9.644-.484 6.257-.968 12.515-1.755 19.428-.987 3.16-1.671 5.664-2.48 8.626h-31.58z"/>
  <path fill="#E5E5E5" d="M1278.178 342.065c-.41 3.31-.82 6.622-1.672 10.419-1.117 1.303-2.394 2.134-2.376 2.935.194 8.528.594 17.051.938 25.576-.376 2.024-.752 4.048-1.471 6.612-3.094 2.544-5.843 4.548-8.592 6.55-3.334-.402-6.668-.804-10.492-1.649-1.305-1.123-2.134-2.41-2.932-2.39-8.527.208-17.05.623-25.574.981l-9.822-1.197c0-4.083 0-8.335.788-12.764 1.534-1.09 2.942-2.013 2.924-2.907-.18-8.746-.597-17.486-.947-26.228.4-2.318.8-4.635 1.568-7.564.938-6.08 1.507-11.548 2.114-17.388 11.018 0 22.12-.006 33.222.017.647.001 1.45.046 1.914.41 4.199 3.295 9.118 2.459 13.88 2.527 1.751.025 3.503.004 4.911.004z"/>
  <path fill="#505152" d="M1471.615 175.975c-.261 16.793-.952 33.53-1.676 51.06h9.57c10.135 0 20.272-.037 30.407.04 1.571.013 3.138.553 4.9 1.26-1.235.826-2.66 1.588-4.092 1.601-11.287.1-22.575.055-34.392.055-.13 1.956-.323 3.545-.328 5.134-.027 8.316.021 16.632-.017 24.948-.016 3.508 1.039 7.257-3.053 9.731-.908.55-.858 3.06-.864 4.668-.068 20.29-.027 40.582-.118 60.872-.015 3.353.222 5.893 4.597 5.93 1.21.011 2.404 1.739 3.164 3.166-3.477 1.01-6.511 1.533-9.274 2.01-.449 2.835-.238 7.244-1.37 7.62-4.151 1.383-3.207 4.78-3.715 7.303-1.004 4.982-1.318 10.103-1.97 15.621 4.907 0 9.547-.06 14.185.04 1.238.027 3.343.246 3.554.878 1.267 3.78 4.282 2.914 6.98 3.116 4.145.31 8.308.534 12.417 1.12 4.564.65 9.096 1.575 13.604 2.555 2.726.592 5.334 1.826 8.076 2.234 8.096 1.204 16.243 2.062 24.336 3.278 1.033.155 1.866 1.631 2.792 2.496-21.489.108-43.322 2.66-64.376-.313-24.5-3.459-48.766-1.004-73.08-2.427-.658-.039-1.312-.153-2.925-.347 0-7.001-.12-14.084.051-21.16.082-3.39.713-6.765 1.452-10.33.88 9.382 1.404 18.945 1.93 28.541 7.465-6.326 16.855-3.772 25.245-5.677 2.543-.577 5.642.633 7.055-3.239.319-.874 3.952-.693 6.064-.732 8.257-.151 9.286-1.114 9.284-9.164-.007-19.827-.068-39.654.05-59.48.01-1.688 1.277-3.343 1.801-5.063.76-2.49 1.934-5.02 1.958-7.542.16-16.817-.23-33.644.114-50.456.468-22.803 1.434-45.596 2.118-68.858 1.661-.492 3.389-.518 5.546-.49"/>
  <path fill="#E4E5E5" d="M1549.651 392.787c-1.249-.94-2.082-2.417-3.115-2.572-8.093-1.216-16.24-2.074-24.336-3.278-2.742-.408-5.35-1.642-8.076-2.234-4.508-.98-9.04-1.905-13.604-2.555-4.109-.586-8.272-.81-12.416-1.12-2.699-.202-5.714.665-6.98-3.116-.212-.632-2.317-.851-3.555-.878-4.638-.1-9.278-.04-14.186-.04.653-5.518.967-10.639 1.97-15.62.51-2.525-.435-5.92 3.717-7.303 1.131-.377.92-4.786 1.369-7.622 2.763-.476 5.797-.999 9.237-1.634 25.533 1.249 50.661 2.61 76.337 4 0 2.646 0 5.414-.457 8.672-4.142.432-3.546 3.153-3.556 5.374-.044 10.036-.036 20.071-.047 30.107-.66-.035-1.32-.07-2.302-.18"/>
  <path fill="#515253" d="M563.515 275.022a286 286 0 0 1-2.226-22.314c-.565-9.472-.94-18.956-1.287-28.44-.26-7.108-2.919-9.657-9.679-12.399-7.112-2.884-13.71-7.037-21.663-7.408-10.958-10.81-24.853-5.144-37.45-6.458-6.574-.686-13.315.255-19.982.393-.97.02-2.192-.027-2.887-.57-5.484-4.275-11.712-2.415-18.318-2.652 0 3.074.135 5.86-.034 8.628-.22 3.63.283 6.988-2.328 10.693-1.988 2.82-.332 8.065-.763 12.183-.25 2.388-1.536 4.65-2.136 7.024a24.4 24.4 0 0 0-.716 5.322c-.1 3.994.161 8.004-.108 11.982-.12 1.795-1.257 3.5-1.75 5.297-.505 1.835-.984 3.718-1.126 5.606-.39 5.138.377 10.066-3.488 14.945-2.231 2.816-1.076 8.346-1.366 12.66-.356 5.315-.577 10.639-.954 15.951-.306 4.308-.534 8.316-2.917 12.54-2.053 3.64-1.024 9.018-1.356 13.628-.189 2.62 1.134 5.787-2.956 6.934-.622.175-.907 2.303-.984 3.55-.703 11.466-1.24 22.942-2.073 34.397-.115 1.581-1.58 3.061-2.405 4.597-.5.93-1.36 1.865-1.386 2.816-.138 5.132-.066 10.27-.066 15.723 8.841.825 17.142 2.175 25.8-.805 5.164-1.777 11.146-1.445 16.77-1.537 4.645-.076 7.01-1.16 6.457-6.542-.388-3.784.614-7.711 1.344-11.78.06 8.732.17 17.706-.668 26.59-.488 5.165-3.124 5.62-7.395 2.75-1.936-1.301-4.548-1.895-6.926-2.166-3.293-.376-6.665.001-9.987-.203-10.35-.635-20.693-1.391-31.512-2.133 0-5.645-.018-9.941.02-14.236.006-.639.07-1.621.463-1.86 5.184-3.146 3.136-8.252 3.46-12.657.718-9.751 1.198-19.521 2.009-29.265.13-1.561 1.603-2.97 2.21-4.544.74-1.922 1.623-3.919 1.747-5.927.746-12.085 1.216-24.188 1.995-36.27.105-1.628 1.512-3.143 2.16-4.773.717-1.798 1.67-3.642 1.786-5.512.272-4.425.083-8.878.145-13.32.014-.968-.015-2.525.512-2.807 4.9-2.618 3.259-7.132 3.428-11.106.395-9.294.733-18.59 1.157-27.882.052-1.142.136-2.565.803-3.351 5.753-6.785 2.738-15.087 4.16-22.6.831-4.4 1.927-8.896 3.87-12.877.916-1.873 4.085-3.684 6.27-3.731 14.826-.318 29.661-.161 44.493-.14.823 0 1.868-.145 2.434.279 7.096 5.31 15.31 3.316 23.173 3.8 2.48.152 4.902 1.308 7.339 2.043.462.14.896.71 1.296.666 7.366-.831 14.192 1.848 21.25 3.068 3.795.656 7.778-.44 11.04 2.996 1.232 1.298 3.997 1.14 7.447 1.986-.726 11.178-1.54 22.666-2.197 34.162-.577 10.1-.897 20.216-1.54 30.312-.102 1.612-1.3 3.154-2.41 4.744"/>
  <path fill="#4E4F50" d="M1390.02 389.562c-1.183.37-2.327.27-3.608.16-.507-4.365-.854-8.66-1.545-12.9-.589-3.608.07-7.822-4.07-10.042-.257-.138-.521-.528-.536-.814-.255-5.01-.504-9.624-4-14.157-2.212-2.867-1.292-8.045-2.123-12.115-.61-2.99-1.775-5.868-2.711-8.79-.203-.632-.565-1.22-.715-1.862-2.253-9.658-3.526-19.69-7.065-28.848-2.238-5.792-2.411-11.256-2.688-17.016-.016-.329-.02-.868-.195-.948-6.605-3.02-3.575-8.931-3.628-13.498-.29-24.995-.138-49.995-.139-74.994 0-10.109-.002-10.109-9.676-12.663.824-1.172 1.971-2.964 3.178-3.005 7.618-.26 15.25-.132 23.094-.132.478 14.437.938 28.332 1.086 43-.135 9.506.04 18.24.217 26.972.371 15.433.734 30.866 1.129 46.298.037 1.484-.27 3.392.505 4.375 4.964 6.294 2.963 13.628 3.609 20.595.217 2.337 1.984 4.489 2.688 6.832.926 3.081 1.966 6.241 2.143 9.413.554 9.927.716 19.875 1.059 29.815.04 1.15-.18 2.875.458 3.353 6.047 4.536 2.727 10.955 3.515 16.516.185 1.305.048 2.656.019 4.455M915.008 351.59c-2.224 1.176-4.382 1.942-6.582 2.564-1.395.394-2.848.783-4.282.81-4.993.092-9.99.02-14.985.025-1.16 0-2.875-.433-3.393.159-3.996 4.562-9.252 2.273-13.959 2.85-4.224.517-8.94-1.621-12.507 2.705-.636.772-2.862.286-4.355.29-6.461.022-12.922.01-19.782.01 0-9.635 0-18.898-.002-28.638 12.621-3.803 25.296-6.951 37.849-10.526 7.432-2.116 14.627-5.052 22.013-7.35 6.274-1.95 12.669-3.514 20.033-5.529 0 15.032 0 28.596-.048 42.63"/>
  <path fill="#505152" d="M1880.101 325.42c-3.33.466-6.66.643-9.981.545-3.668-.11-7.224.697-10.712-2.438-1.791-1.609-6.108-.178-9.213-.615-3.493-.492-6.875-1.744-10.365-2.287-3.064-.476-6.208-.495-9.32-.6-3.962-.132-8.416 1.187-10.263-4.679l-1.03.785c0 5.771-.352 11.57.097 17.307.474 6.047 2.034 12.008 2.526 18.055.457 5.622-1.73 12.263.572 16.75 3.84 7.484 1.683 14.813 2.594 22.62-1.333 1.038-2.611 2.019-3.916 2.054-6.73.184-13.465.125-20.669.1.922-1.048 2.256-2.796 3.716-2.908 4.762-.367 9.57-.138 14.595-.138.706-11.278 2.147-21.952-1.052-32.952-1.937-6.663-.658-14.205-1.403-21.291-.49-4.663 2.264-10.42-3.864-13.695-.623-.334-.32-2.49-.364-3.803-.71-21.28-1.398-42.559-2.125-63.837-.033-.966-.04-2.371-.628-2.81-4.432-3.31-3.176-8.018-3.223-12.369-.078-7.326.12-14.659-.14-21.977-.052-1.485-1.721-2.864-2.445-4.388-.644-1.354-1.415-2.836-1.433-4.27-.124-9.968-.065-19.938-.065-30.796-3.69 0-7.11 0-10.766-.352 1.77-.727 3.767-1.378 5.78-1.425 6.114-.142 12.234-.051 19.003-.051 0 3.383-.248 6.189.058 8.933.474 4.247 1.329 8.45 2.018 12.673.318 1.944.817 3.88.904 5.836.507 11.397-.979 22.815 2.728 34.148 1.673 5.116-.016 11.253.357 16.892.426 6.442-1.157 12.865 2.48 19.364 2.198 3.928 1.208 9.744 1.293 14.717.062 3.63-.293 7.29-.753 10.899-1.164 9.128 4.946 16.421 14.136 16.55 3.604.051 7.302-.532 9.873 2.973.34.464 1.164.716 1.798.797 8.443 1.088 16.902 2.057 25.33 3.25 1.36.192 2.586 1.325 3.872 2.434"/>
  <path fill="#4F5051" d="M1741.888 388.748c-1.001-.8-2.562-1.978-2.792-3.375-1.226-7.433.05-16.32-3.648-22.052-5.224-8.098-1.718-17.426-5.959-24.378-3.689-6.047-3.019-11.836-3.549-18.254-5.028-.222-5.002-3.601-4.969-7.531.155-18.633.067-37.267.072-55.9 0-2.44.56-4.878-3.117-5.679-.974-.212-1.853-3.296-1.873-5.07-.147-13.142-.066-26.287-.057-39.43v-6.397c-8.688 0-17.094 0-25.747-.349 4.748-1.024 9.725-1.997 14.741-2.296 5.634-.336 11.305-.068 16.96-.057 5.356.011 8.064 2.823 8.066 8.318.011 26.277-.164 52.557.137 78.832.13 11.246 1.256 22.482 1.936 33.722.03.494-.05 1.236.229 1.438 6.66 4.836 2.902 11.816 3.8 17.843.417 2.799 1.52 5.492 2.258 8.248.292 1.093.515 2.219.63 3.344.686 6.74-.662 13.352 2.496 20.293 2.317 5.096.445 12.097.386 18.73"/>
  <path fill="#4E4F50" d="M204.165 286.119c3.775.414 8.099-.343 10.402 4.08.389.746 2.73.642 4.17.648 10.631.05 21.264-.075 31.89.142 1.51.03 2.933 1.734 4.499 2.432 1.505.672 3.129 1.425 4.727 1.49 17.22.692 34.446 1.255 51.982 1.864 0 3.502 0 6.438.018 9.838-5.312.442-10.643.304-15.969.43-4.558.107-9.345-.962-13.349 2.612-.779.696-2.564.34-3.885.342-20.66.022-41.32-.031-61.98.106-2.18.014-4.35 1.12-6.528 1.71-1.77.48-3.543.947-6.068 1.622 0-9.599 0-18.215.091-27.316m812.969 83.352c2.049-.892 4.212-1.474 6.9-2.197 0-3.334-.04-6.967.01-10.6.05-3.547-.246-6.762 2.36-10.238 1.782-2.378.307-7.07.674-10.687.193-1.893 1.177-3.717 1.88-5.542.418-1.082 1.246-2.06 1.444-3.164a898 898 0 0 0 3.566-21.214c.65-4.194-1.542-8.9 2.694-12.484.803-.68.45-2.866.429-4.354-.062-4.428.018-8.425 2.307-12.838 1.917-3.694.33-9.12.71-13.744.127-1.549 1.582-2.968 2.335-4.494.59-1.195 1.376-2.433 1.484-3.702.762-8.948 1.303-17.915 2.112-26.859.107-1.18 1.334-2.259 2.444-3.383.768.87 1.446 1.735 1.453 2.607.08 10.83.067 21.662.06 32.493 0 .654.1 1.639-.265 1.913-5.622 4.231-3.412 10.31-3.697 15.723-.767 14.592-1.376 29.192-1.955 43.792-.071 1.788.732 3.628.567 5.391-.188 2.016-.885 4.017-1.581 5.944-.896 2.479-2.784 4.845-2.89 7.318-.36 8.316.123 16.667-.218 24.984-.145 3.555-1.057 7.262-2.465 10.536-1.716 3.991-6.268 3.689-9.032 2.612-4.09-1.595-7.508-4.917-11.326-7.813"/>
  <path fill="#505152" d="M956.986 182.417c1.042 1.095 2.8 2.614 2.893 4.23.345 5.931.137 11.894.137 17.883l144.466 2.964c.903-5.998 1.434-11.108 2.526-16.095.54-2.47 2.208-4.675 3.177-7.076.471-1.17.31-2.598.794-3.76.606-1.462 1.58-2.77 2.763-4.26.157 3.234.373 6.677-.347 9.911-1.908 8.565-4.227 17.038-6.367 25.551-.484 1.923-.758 3.91-1.383 5.784-1.197 3.582-5.142 4.514-8.414 2.721-2.749-1.506-5.906-2.96-8.947-3.109-8.63-.422-17.298-.024-25.943-.25-2.865-.074-5.706-1.06-9.394-1.797-.397 1.481-1.04 3.884-1.863 6.637-.636-1.046-1.093-2.442-1.658-4.167-1.683-1.48-6.79 1.122-5.587-4.025-16.366-.643-32.295-1.27-47.85-1.88-.955 3.17-2.028 6.73-3.487 10.385-.386-3.36-.386-6.815-.386-11.037-2.52 0-4.44.02-6.358-.004-6.388-.079-12.759.73-18.736-3.14-2.354-1.523-6.081-.924-10.084-1.398 0-7.777 0-15.687.048-24.068M385.732 299.116c-2.36-.445-4.625-1.139-6.7-2.2a22.2 22.2 0 0 1-4.873-3.384c-3.468-3.192-5.248-8.445-11.126-8.682-.856-.034-1.722-1.25-2.479-2.021-1.621-1.653-2.985-3.617-4.792-5.02-4.698-3.65-9.578-7.064-15.135-11.119 3.737-3.37 7.21-6.5 10.68-9.633 2.762-2.495 5.512-5.003 8.282-7.49 6.518-5.853 13.11-11.628 19.492-17.625.865-.813.7-2.721.938-4.515 3.037-1.073 4.176.238 4.028 3.327-.195 4.054-1.56 7.653-2.746 11.433-1.732 5.525-4.816 10.947-5.154 16.814-.336 5.813-.105 11.298 3.2 17.133 3.757 6.635 4.507 14.974 6.385 22.982m363.271-63.522c-1.194.354-2.342.236-3.94.072V213.26c-9.623-.772-18.86-1.37-28.06-2.321-3.83-.396-8.317 1.11-11.148-3.378-.486-.77-2.814-.459-4.295-.508-21.449-.71-42.898-1.39-64.346-2.111-1.14-.039-2.272-.382-3.876-.441-.471-3.07 1.568-3.585 4.207-3.555 6.323.072 12.651.193 18.97.007 4.68-.138 9.695 1.224 13.758-2.689.631-.608 2.242-.247 3.4-.251 8.321-.026 16.65.168 24.959-.149 2.966-.113 5.873-1.5 8.832-2.206 1.418-.338 2.886-.57 4.34-.633 8.452-.37 16.914-.543 25.353-1.087 2.361-.152 4.657-1.329 7.834-2.295 0 3.944-.034 7.952.017 11.96.02 1.65-.434 4.077.45 4.824 5.63 4.761 3.053 11.039 3.492 16.715.255 3.31.08 6.654.053 10.453m11.937 146.076c-.685-2.122-1.49-4.693-1.894-7.326-.294-1.918-.057-3.916-.057-5.974-6.29-.932-11.962-2.064-17.761 1.278-2.496 1.438-6.143.884-9.269 1.22-2.475.266-5.45-.771-6.44 3.046-.164.627-2.273.962-3.513 1.063-8.956.727-17.928 1.269-26.873 2.112-1.457.138-2.8 1.479-4.2 2.256-.921.513-1.84 1.425-2.778 1.449-5.47.139-10.945.068-16.78.068V361.72c2.391-.354 4.66-.69 7.187-1.318 12.859.01 25.462.298 38.064.619 3.993.101 8.046-.884 11.545 2.658 1.307 1.322 4.391 1.166 6.673 1.2 8.452.126 16.907.05 26.147.05 0 5.764 0 11.016-.05 16.742"/>
  <path fill="#4F5051" d="M914.965 177.65c-3.592 5.001-8.58 4.453-13.486 4.377-5.488-.086-10.983-.144-16.466.052-3.588.129-7.67-1.575-10.464 2.528-.415.61-2.206.38-3.36.378-8.316-.008-16.631-.06-24.947-.09-.994-.003-2.27-.35-2.94.127-8.147 5.8-17.25 1.954-26.184 2.292 1.74-1.07 3.741-1.959 5.834-2.344 6.403-1.18 14.077-.346 18.97-3.665 6.954-4.718 13.986-4.809 21.393-5.458.77-.067 1.833-.44 2.188-1.02 2.025-3.317 5.188-2.71 8.316-2.98 2.06-.177 3.99-1.652 6.025-2.42 2.396-.903 4.788-2.037 7.28-2.415 4.244-.644 8.659-.343 12.826-1.245 4.135-.896 8.047-2.808 12.074-4.225.74-.26 1.56-.289 2.985-.535 0 5.607 0 10.888-.044 16.643"/>
  <path fill="#505152" d="M1278.556 341.98c-.892-5.01-1.406-10.107-1.997-15.97-1.408 0-3.16.02-4.912-.005-4.761-.068-9.68.768-13.88-2.527-.463-.364-1.266-.409-1.913-.41-11.102-.023-22.204-.017-33.222-.017-.607 5.84-1.176 11.309-2.089 16.99-.344-9.65-.344-19.51-.344-30.012-5.137 0-10.581.084-16.02-.045-1.911-.046-3.81-.614-5.915-1.267 7.737-.75 15.693-1.706 23.612-1.463 9.695.298 19.36 1.602 29.234 2.056 5.574 1.242 11.368-.144 16.782 3.068 3.123 1.852 8.044.672 13.028.896 0 8.87.045 17.713-.086 26.553-.01.698-1.238 1.38-2.278 2.153m-801.044-9.96c-.869-5.108-1.304-10.19-1.792-15.894h32.457c6.943 6.702 16.124 1.533 23.349 4.245 7.133 2.677 13.891 1.328 20.79 1.833 2.187.16 4.461-.86 7.115-1.374.42 2.769.42 5.572.42 8.87-1.509.113-2.93.31-4.352.313-19.114.035-38.23-.123-57.342.148-6.744.096-13.475 1.226-20.645 1.86M377.219 399.89c2.145-1.45 4.767-2.832 8.389-4.739-1.297-1.7-2.65-4.608-4.921-6.236-6.7-4.8-13.79-9.052-20.673-13.6-5.508-3.64-5.73-6.932-.718-11.133 6.46-5.414 12.913-10.847 19.593-15.982 1.68-1.291 4.213-1.475 6.755-2.15.062 8.963-.513 17.907-.527 26.852-.008 5.49.326 10.807 4.378 15.677 1.949 2.342.972 7.119 1.377 11.381-4.657 0-8.917 0-13.653-.07m348.812-90.358c-1.5.36-2.967.253-4.865.113l-1.715-35.25c-5.052 2.296-9.458 5.962-13.799 5.885-6.651-.117-10.28 5.236-15.965 6.354-1.796.353-3.326 2.09-4.958 3.223-.39.27-.754.986-1.038.939-7.127-1.186-11.65 5.195-18.277 6.438 0-5.65 0-11.023-.06-16.872 7.502-1.95 15.064-3.424 22.624-4.905.805-.157 1.594-.394 2.401-.535 7.2-1.258 14.813.242 21.66-3.811 1.632-.966 4.688-.276 6.758.516 1.368.523 2.869 2.502 3.046 3.982.447 3.717-.508 7.65 3.45 10.295.742.496.691 2.437.706 3.714.076 6.481.053 12.964.032 19.914"/>
  <path fill="#525354" d="M361.136 175.219c-1.565-.414-3.332-.982-4.611-2.105-2.42-2.124-4.393-4.766-6.852-6.836-4.695-3.953-9.6-7.655-14.122-11.227 4.938-5.353 9.75-10.708 14.712-15.919 7.706-8.09 15.515-16.082 22.982-24.243.162-1.159.622-2.19 1.1-3.263 2.572 3.536 2.158 8.912-.482 13.085-4.546 7.185-8.107 15.145-13.493 21.602-4.606 5.522-2.863 11.197-3.29 16.912-.088 1.178.785 2.429 1.22 3.644.95 2.65 1.902 5.298 2.836 8.35"/>
  <path fill="#4E4F50" d="M620.666 205.494c-3.047 2.138-3.784 4.88-3.774 8.714.14 52.995.063 105.99-.095 159.446-1.22-.972-3.258-2.403-3.257-3.834.04-53.773.265-107.546.482-161.32.004-.965.2-1.93.348-3.273 2.14 0 4.073 0 6.296.267m976.329 89.912c1.196-.351 2.345-.231 3.458-.115.17.37.43.67.43.969-.012 37.63-.042 75.26-.07 113.368-3.857.965-3.85-1.623-3.845-4.288q.036-24.243.03-48.484c-.007-20.326-.033-40.653-.003-61.45M664.903 276.74c-.99-1.016-2.671-2.49-2.717-4.012-.258-8.634-.125-17.28-.125-26.639 28.906 0 57.737 0 87.082.027 2.677 1.94 1.873 3.218-.478 3.802-1.257.313-2.651.082-3.983.082-24.831 0-49.663-.006-74.494.005-1.47.001-2.94.145-5.222.265 0 8.8 0 17.396-.063 26.47"/>
  <path fill="#505152" d="M1656.076 386.405c-1.15.46-2.305.46-4.098.46 0-4.078.109-8.014-.031-11.942-.141-3.954 1.207-8.008-2.53-11.597-1.36-1.305-.203-5.094-.448-7.727-.496-5.323.54-10.455-2.433-15.979-2.27-4.22-.451-10.64-.451-16.344 8.042 0 15.78 0 23.713.389-2.145 1.04-4.478 2.217-6.829 2.254-10.946.174-11.005.062-10.904 10.977.04 4.303-1.323 9.051 3.619 12.062.764.466.85 2.444.839 3.72-.097 11.089-.289 22.178-.447 33.727"/>
  <path fill="#525354" d="M1679.741 196.289c-6.998.788-14.214 1.108-21.395 1.798-2.417.232-4.704 1.587-7.12 2.096-2.37.498-4.822.698-7.247.8-3.117.13-6.244.031-9.548.031l-.816-6.04c-6.792 0-13.711.063-20.628-.043-1.906-.029-3.804-.567-5.868-1.306.847-1.18 1.843-2.55 2.864-2.568 8.987-.166 17.978-.102 26.969-.067.802.004 2.095.026 2.329.474 2.567 4.906 7.114 3.388 11.07 3.451 8.156.13 16.316 0 24.472.103 1.575.02 3.142.617 4.918 1.27m-341.159-14.303c-.923 1.045-2.246 2.756-3.72 2.899-4.082.395-8.226.137-13.203.137 0 18.828 0 37.235-.433 55.928-1.045-.54-2.188-1.365-2.193-2.195-.101-18.62-.078-37.241-.078-56.82 6.663 0 12.91 0 19.627.05M200.004 211.393c1.194-.37 2.343-.27 3.973-.127 0 11.388.075 22.777-.03 34.164-.06 6.587-.408 13.172-.474 20.226-3.55.553-3.495-1.987-3.493-4.618.015-16.39-.01-32.782.024-49.645"/>
  <path fill="#555556" d="M1417.493 211.012a409 409 0 0 1 1.396 26.293c.186 8.633.217 17.273.034 25.905-.033 1.596-1.409 3.165-2.577 4.692-.718-17.437-1.078-34.819-1.237-52.203-.014-1.554 1.28-3.12 2.384-4.687"/>
  <path fill="#515253" d="M274.585 195.068c-.46-1.151-.46-2.308-.46-4.042 8.478 0 16.88-.082 25.28.025 7.594.097 15.186.401 23.247.468.547 3.58-2.027 3.515-4.658 3.514-14.316-.01-28.632.016-43.409.035"/>
  <path fill="#636364" d="M1413.36 286.216c.65 1.374 1.215 2.938 1.235 4.51.192 15.108.357 30.219.324 45.328-.004 1.656-1.294 3.31-2.387 5.028-.432-17.454-.477-34.972-.456-52.49 0-.728.617-1.456 1.284-2.376"/>
  <path fill="#525354" d="M311.933 307.578c1.149-.462 2.3-.462 3.547-.462 0 13.094 0 26.072.085 39.526-3.51.436-3.617-2.013-3.61-4.696.029-11.302-.007-22.605-.022-34.368"/>
  <path fill="#575859" d="M1527.4 226.994c-.358-1.186-.246-2.327-.086-3.944h31.58c.809-2.962 1.493-5.466 2.487-8.18.31 3.688.31 7.585.31 12.17-11.45 0-22.634 0-34.29-.046M209.465 367.965c.313 15.69.247 31.439.06 47.65-.93-1.39-2.41-3.232-2.441-5.099-.205-12.415-.182-24.837-.003-37.253.026-1.756 1.305-3.493 2.384-5.298"/>
  <path fill="#525354" d="M1552.38 393.013c-.416-10.08-.424-20.116-.38-30.152.01-2.22-.586-4.942 3.51-4.928.436 10.281.428 20.607.506 30.933.018 2.341.09 4.493-3.635 4.147"/>
  <path fill="#575859" d="M199.64 140.022a938 938 0 0 1-.216 46.85c-1.077-1.195-2.339-2.706-2.358-4.232-.158-12.486-.17-24.976.02-37.46.026-1.73 1.408-3.438 2.554-5.158"/>
  <path fill="#555556" d="M1114.58 176.083c-.402-3.097-.402-6.216-.402-10.061-7.065 0-13.758.141-20.436-.104-1.597-.058-3.147-1.404-4.658-2.57 9.064-.839 18.067-1.265 27.938-1.733-.917 5.35 2.235 10.226-2.443 14.468m207.423 92.321c1.035.598 2.872 1.657 2.885 2.737.142 12.433.015 24.868-.087 37.303-.003.4-.507.796-1.193 1.386-.807-1.243-1.523-2.675-1.536-4.112-.11-12.28-.093-24.562-.069-37.314"/>
  <path fill="#525354" d="M339.402 191.007c.898-1.04 2.23-2.819 3.64-2.884 6.763-.311 13.551-.026 20.32-.254 1.986-.067 3.94-1.123 6.343-1.885 2.676.647 4.917 1.453 7.158 2.259l-.024 1.698c-1.688.346-3.373.975-5.064.994-10.634.116-21.268.097-32.373.072"/>
  <path fill="#555556" d="M767.006 233.398c1.183-.363 2.32-.254 3.39-.151 0 9.71 0 19.33.131 29.42-3.371.41-3.579-1.945-3.562-4.634.049-8.054.004-16.11.041-24.635m993.995 3.009c1.181-.367 2.319-.262 3.376-.165 0 9.716 0 19.336.14 29.427-3.363.408-3.568-1.947-3.552-4.635.048-8.052.002-16.104.036-24.627M473.492 367.989a376 376 0 0 1-1.358-27.111c-.013-.952 1.925-1.931 3.37-2.945.434 8.59.547 17.231.382 25.866-.027 1.407-1.287 2.79-2.394 4.19m563.498-209.515c-9.736.787-19.475 1.22-29.219 1.428-.894.02-1.82-1.394-2.675-2.555a429 429 0 0 1 27.698-1.22c1.389-.016 2.794 1.257 4.196 2.347"/>
  <path fill="#575859" d="M386.45 346.06c-.404-8.338-.46-16.662-.406-24.984.01-1.606.457-3.208 1.138-4.952 1.232.958 2.684 2.037 2.717 3.157.216 7.27.32 14.556-.015 21.816-.078 1.702-1.982 3.32-3.434 4.963"/>
  <path fill="#5E5F60" d="M1251.6 307.938c-.345-7.433-.345-15.021-.345-23.457 5.607.487 11.12.965 16.917 1.7-3.953.559-8.191.86-13.24 1.22 0 5.208.235 10.442-.137 15.633-.117 1.643-1.855 3.17-3.195 4.904"/>
  <path fill="#575859" d="M376.937 226.338c-8.986.463-18.115.687-27.24.59-1.574-.017-3.134-1.4-4.635-2.566 9.043-.716 18.021-1.166 27-1.18 1.576-.002 3.155 1.826 4.875 3.156"/>
  <path fill="#555556" d="M1188.505 376.989a348 348 0 0 1-1.37-26.112c-.014-.952 1.925-1.93 3.37-2.944.433 8.255.55 16.56.381 24.858-.028 1.41-1.279 2.795-2.381 4.198m-36.497 7.53c8.772-.785 17.545-1.224 26.323-1.383.661-.012 1.359 1.98 1.941 3.393a379 379 0 0 1-24.54.35c-1.251-.023-2.48-1.266-3.724-2.36m528.999-36.122c1.18-.362 2.317-.253 3.358-.153 0 9.048 0 18.003.145 27.427-2.951.424-3.567-1.487-3.546-4.139.062-7.554.006-15.108.043-23.135M1229.991 174.52c-9.07.773-18.144 1.194-27.223 1.383-.894.018-1.818-1.394-2.673-2.556a364 364 0 0 1 25.73-1.217c1.378-.016 2.773 1.282 4.166 2.39m-85.487 26.492c.776 8.733 1.203 17.473 1.392 26.217.02.894-1.39 1.82-2.55 2.675a335 335 0 0 1-1.225-24.73c-.017-1.376 1.277-2.77 2.383-4.162m-159.99 102c.773 8.733 1.197 17.473 1.382 26.218.02.894-1.39 1.818-2.55 2.674a335 335 0 0 1-1.224-24.736c-.017-1.374 1.283-2.765 2.392-4.156m234.017 44.999c.769 8.734 1.186 17.474 1.366 26.22.018.894-1.39 1.818-2.55 2.673a334 334 0 0 1-1.225-24.747c-.017-1.37 1.294-2.758 2.41-4.146m548.469-37.604c1.18-.367 2.316-.263 3.36-.167 0 8.718 0 17.34.144 26.432-2.947.42-3.564-1.483-3.54-4.135.065-7.22.004-14.44.036-22.13M681.402 415.999c-.363-1.184-.255-2.32-.152-3.398 8.695 0 17.32 0 26.416-.13.423 2.954-1.477 3.591-4.13 3.569-7.22-.061-14.442-.004-22.134-.041m643.604-95.602c1.18-.362 2.316-.253 3.395-.15 0 8.708 0 17.328.13 26.42-2.956.423-3.59-1.47-3.566-4.13.066-7.222.006-14.445.041-22.14M671.95 336.13c-.55-1.2-.665-2.447-.764-3.523 8.928 0 17.469 0 26.481-.133.422 2.95-1.48 3.585-4.129 3.566-7.051-.05-14.103.021-21.589.09m466.541-61.118c.78 8.401 1.215 16.808 1.406 25.22.02.893-1.39 1.818-2.549 2.672a306 306 0 0 1-1.226-23.721c-.017-1.38 1.268-2.775 2.368-4.17m55.502-104.493c-8.738.774-17.479 1.197-26.226 1.382-.893.019-1.816-1.394-2.669-2.555a334 334 0 0 1 24.731-1.216c1.378-.017 2.772 1.281 4.164 2.39"/>
  <path fill="#525354" d="M1906 354.597c-1.195.357-2.343.243-3.991.079 0-5.616.18-11.236-.086-16.836-.113-2.357-1.17-4.669-1.945-7.358 1.655-.356 3.457-.356 6.069-.356 0 8.144 0 16.072-.047 24.471"/>
  <path fill="#555556" d="M1617.402 409.998c-.363-1.182-.255-2.318-.152-3.406 8.36 0 16.651 0 25.415-.127.425 2.953-1.466 3.6-4.122 3.575-6.89-.064-13.78-.005-21.14-.042m-256.001-12.999c-.363-1.2-.256-2.35-.147-3.52 8.364 0 16.643 0 25.397-.084.402 2.948-1.416 3.677-4.108 3.648-6.89-.074-13.78-.008-21.142-.044m-584.395-50.601c1.18-.363 2.314-.254 3.386-.152 0 8.376 0 16.663.133 25.421-2.951.425-3.586-1.466-3.56-4.124.068-6.89.006-13.782.04-21.145m1097.396 40.601c-.364-1.183-.257-2.318-.15-3.456 8.354 0 16.644 0 25.407-.109.415 2.952-1.446 3.634-4.117 3.607-6.889-.068-13.779-.006-21.14-.042m-741.912-38.986c.78 8.067 1.218 16.14 1.405 24.22.021.892-1.388 1.817-2.547 2.672a279 279 0 0 1-1.226-22.717c-.018-1.38 1.268-2.778 2.368-4.175"/>
  <path fill="#575859" d="M828.995 257.608c-2.416.475-4.166.122-3.937-3.07.283-3.948.067-7.933.067-12.682 3.639.267 6.864.505 10.552.607.065.872-.209 2.68-.751 2.765-7.735 1.21-5.866 7.012-5.931 12.38"/>
  <path fill="#555556" d="M755.402 410.007c-1.132-4.54 2.317-3.897 5.024-4.3.503-4.159 1.002-8.292 1.932-12.59 1.171.659 2.375 1.392 2.554 2.323.337 1.747.068 3.607.073 5.42.024 9.086.026 9.086-9.583 9.147m778.589-229.485c-7.405.772-14.814 1.206-22.23 1.376-.89.02-1.813-1.39-2.665-2.551 6.95-.714 13.842-1.136 20.739-1.214 1.376-.015 2.767 1.28 4.156 2.389m240.127 203.731c1.421 2.27 2.784 5.018 4.452 8.379 2.923.333 7.036.802 11.312 1.701-.66 1.185-1.448 2.547-2.306 2.592-4.269.224-8.555.102-13.517.102 0-4.462 0-8.38.059-12.774"/>
  <path fill="#525354" d="M1780.592 177.995c.357 1.196.244 2.344.092 3.873-6.95 0-13.885 0-21.295-.003-.952-3.115.57-4.025 3.474-3.958 5.75.132 11.506.04 17.73.088"/>
  <path fill="#555556" d="M774.004 307.403c1.008.261 2.812 1.001 2.806 1.726a400 400 0 0 1-1.091 26.69c-.834-1.214-1.609-2.619-1.634-4.037-.141-7.968-.103-15.938-.08-24.379m57.992-10.807c-1.009-.26-2.815-.999-2.809-1.722.073-8.835.412-17.668 1.09-26.695.837 1.218 1.611 2.625 1.637 4.046.142 7.965.104 15.933.082 24.371m497 58.814c1.014.251 2.828.981 2.821 1.695a369 369 0 0 1-1.099 25.714c-.835-1.215-1.606-2.62-1.634-4.04-.146-7.631-.108-15.266-.088-23.37"/>
  <path fill="#636364" d="M1275.374 380.757c-.65-8.287-1.05-16.81-1.244-25.338-.018-.801 1.259-1.632 2.335-2.508.436 7.956.526 15.973.45 23.988-.013 1.21-.804 2.414-1.541 3.858m-83-39c-.65-8.287-1.05-16.81-1.244-25.338-.018-.801 1.259-1.631 2.335-2.508.436 7.957.526 15.973.45 23.988-.013 1.21-.804 2.413-1.541 3.858m33.876 49.642c8.28-.658 16.804-1.073 25.331-1.282.798-.02 1.627 1.268 2.504 2.35-8.091.43-16.244.508-24.395.436-1.069-.01-2.13-.784-3.44-1.504"/>
  <path fill="#555556" d="M1770.997 348.41c1.014.25 2.827.976 2.822 1.689a342 342 0 0 1-1.077 24.716c-.84-1.206-1.626-2.605-1.656-4.02-.151-7.302-.11-14.609-.089-22.385"/>
  <path fill="#5E5F60" d="M293.98 219.558c-5.795.768-11.606 1.247-17.423 1.319-.794.01-1.613-2.016-2.406-3.529a149 149 0 0 1 16.704-.182c1.063.047 2.073 1.286 3.125 2.392m699.805-65.197c-9.384.388-18.957.436-28.735.134 7.828-.722 15.859-1.158 23.895-1.414 1.539-.05 3.1.608 4.84 1.28"/>
  <path fill="#636364" d="M990.606 230.243c.656 7.953 1.064 16.14 1.262 24.334.02.805-1.252 1.641-2.325 2.52-.436-7.788-.519-15.635-.45-23.481.01-1.049.786-2.09 1.513-3.373"/>
  <path fill="#555556" d="M790.414 406.01c.246-1.02.969-2.837 1.677-2.831 7.848.06 15.694.404 23.732 1.081-1.05.844-2.285 1.628-3.536 1.654-7.132.148-14.268.116-21.873.096"/>
  <path fill="#525354" d="M1726.417 400.014c.91-1.045 2.212-2.738 3.682-2.9 3.737-.41 7.55-.136 11.65-.136.139-2.272.256-4.201.41-6.584 1.158 1.595 2.822 3.536 3.249 5.72.415 2.126-.65 4.037-3.68 3.928-4.94-.179-9.894-.003-15.311-.028"/>
  <path fill="#636364" d="M987.592 268.248c.657 7.615 1.074 15.469 1.275 23.328.02.806-1.25 1.645-2.321 2.526-.437-7.454-.523-14.966-.454-22.477.01-1.049.78-2.091 1.5-3.377"/>
  <path fill="#525354" d="M780.992 381.414c1.043.923 2.843 2.285 2.9 3.716.264 6.633.044 13.285.061 20.394-3.073.934-2.95-1.186-2.95-3.275-.003-6.788-.037-13.577-.011-20.835"/>
  <path fill="#555556" d="M835.085 331.39c-1.02-.332-2.94-1.128-2.935-1.911.049-7.369.427-14.735 1.117-22.298.84 1.036 1.622 2.26 1.65 3.503.156 6.746.126 13.497.168 20.705m-29.5-143.399c-.251 1.02-.98 2.837-1.692 2.83a280 280 0 0 1-22.724-1.124c1.066-.833 2.31-1.585 3.57-1.612 6.79-.147 13.584-.114 20.846-.094m885.825 215.017c.248-1.02.971-2.834 1.681-2.829 7.516.059 15.029.407 22.733 1.086-1.052.843-2.287 1.623-3.54 1.65-6.798.15-13.601.114-20.873.093m148.003-12.997c.246-1.02.968-2.836 1.676-2.83 7.516.058 15.029.406 22.734 1.084-1.052.843-2.287 1.623-3.539 1.65-6.798.15-13.6.116-20.87.096M770.997 272.41c1.014.249 2.826.976 2.82 1.688a285 285 0 0 1-1.09 22.72c-.838-1.045-1.617-2.281-1.644-3.533-.146-6.8-.107-13.603-.086-20.875M267.393 415.997c-.38-1.18-.289-2.314-.192-3.527 5.68 0 11.322 0 17.439-.076.47 2.993-1.377 3.69-4.042 3.639-4.243-.082-8.49 0-13.205-.036m16.214-288.994c.378 1.18.286 2.313.187 3.528-5.678 0-11.318 0-17.434.075-.482-3.003 1.378-3.69 4.038-3.64 4.244.08 8.492 0 13.209.037"/>
  <path fill="#525354" d="M1653.236 405.902c4.445-5.35 2.134-11.984 2.905-18.514.964.965 2.572 2.319 2.771 3.856.417 3.217-.19 6.56.14 9.798.443 4.35-1.452 5.601-5.816 4.86m-321.122-11.68c5.133 4.461 11.684 2.1 17.837 3.529-.358 1.045-.987 2.178-1.647 2.196-5.216.147-10.437.082-16.25.082 0-2.191 0-3.775.06-5.807"/>
  <path fill="#555556" d="M1677.012 324.526c1.16-.821 2.327-1.183 4.253-1.779-.323 5.666-.602 10.56-.744 15.923-1.082-.923-3.094-2.182-3.354-3.734-.54-3.234-.153-6.624-.155-10.41"/>
  <path fill="#575859" d="M324.61 121.008c.38 1.178.29 2.31.195 3.507-5.019 0-9.998 0-15.45.083.865-1.14 2.085-3.207 3.569-3.42 3.674-.524 7.47-.2 11.687-.17m-80.001 240c.38 1.177.29 2.31.193 3.528-5.015 0-9.994 0-15.447.075.865-1.15 2.084-3.22 3.568-3.432 3.674-.525 7.47-.2 11.687-.171m101.999-244c.38 1.177.29 2.308.192 3.549-5.013 0-9.99 0-15.444.067.864-1.16 2.082-3.232 3.565-3.445 3.675-.526 7.471-.2 11.688-.171"/>
  <path fill="#5E5F60" d="M1148.633 168.02c.386 5.628.544 11.267.282 16.886-.08 1.707-1.318 3.36-2.408 5.138-.422-5.876-.603-11.858-.398-17.827.048-1.42 1.388-2.798 2.524-4.197M273.82 215.801c-.96-.258-2.615-.968-2.648-1.746-.233-5.549-.216-11.113-.042-16.665.022-.712 1.406-1.38 2.55-2.179.326 6.63.26 13.368.14 20.59m1623.131 113.545c-4.317.444-8.792.58-13.267.702-2.242.06-4.1-.317-3.547-3.713 3.117-.373 6.3-.683 9.336-.155 2.529.44 4.886 1.864 7.478 3.166M1562.034 184.46c-5.302.434-10.682.663-16.044.454-1.665-.065-3.283-1.32-5.028-2.41 5.51-.416 11.13-.593 16.738-.393 1.443.05 2.843 1.284 4.334 2.349"/>
  <path fill="#575859" d="M1591.012 258.39c1.167-.364 2.29-.26 4.137-.09-.234 4.65-.467 9.272-.584 14.366-1.107-.874-3.139-2.086-3.386-3.59-.547-3.329-.196-6.804-.167-10.687"/>
  <path fill="#555556" d="M825.414 403.008c.753-1.046 1.937-2.839 3.207-2.903 4.973-.25 9.972.045 15.17.516-1.26 1.054-2.702 2.224-4.206 2.312-4.554.265-9.133.112-14.171.075"/>
  <path fill="#575859" d="M312.385 409.992c-.378-1.175-.29-2.303-.193-3.548 4.35 0 8.664 0 13.452-.067-.86 1.167-2.045 3.182-3.56 3.471-2.98.57-6.145.182-9.699.144M1280.99 274.61c-1.193.356-2.342.246-4.13.074.221-4.337.44-8.607.555-13.348 2.89-.412 3.711 1.346 3.617 4.036-.102 2.92-.006 5.848-.042 9.238M238.614 133.008c.378 1.174.29 2.302.192 3.569-4.346 0-8.66 0-13.448.06.86-1.165 2.043-3.161 3.555-3.452 2.982-.574 6.147-.204 9.701-.177m1026.387 261.51c2.753-2.363 5.502-4.367 8.566-6.519.314 2.653.314 5.455.314 8.622-3.254.157-6.725 3.348-8.88-2.103M249.38 419.991c-.374-1.173-.287-2.3-.188-3.563 4.014 0 7.997 0 12.45-.062.442 2.939-1.32 3.766-4.006 3.666-2.594-.096-5.195-.004-8.255-.041m1335.623-198.599c1.165-.354 2.285-.245 4.13-.066-.234 3.97-.469 7.923-.581 12.345-1.11-.87-3.064-2.045-3.411-3.583-.592-2.625-.176-5.478-.138-8.696M209.99 422.316c3.439-.213 6.818-.035 10.662.067.134 5.678-4.77 2.908-7.542 3.93-.543.2-2.094-2.334-3.12-3.997"/>
  <path fill="#555556" d="M219.6 137.002c-.697 1.04-1.808 2.807-3.035 2.89-3.882.267-7.807-.097-12.178-.323 2.159-.942 4.731-2.065 7.418-2.528 2.377-.409 4.881-.082 7.796-.039m46.999 221c-.698 1.04-1.811 2.808-3.038 2.89-3.882.26-7.806-.11-12.174-.362 2.494-.943 5.41-1.966 8.414-2.508 2.048-.369 4.217-.065 6.799-.02m43.001-6c-.536 1.037-1.495 2.828-2.548 2.886-4.053.22-8.135-.114-12.665-.373 2.498-.943 5.417-1.957 8.421-2.493 2.047-.366 4.213-.065 6.792-.02"/>
  <path fill="#575859" d="M1563.501 195.016c-.7-3.086-1.027-6.151-1.342-9.668 1.291.36 3.587 1.094 3.656 1.998.202 2.63 3.163 6.34-2.314 7.67"/>
  <path fill="#555556" d="M355.397 402.998c.694-1.04 1.793-2.796 3.022-2.893 3.55-.278 7.153.111 11.194.36-2.327.942-5.076 1.96-7.914 2.512-1.879.365-3.887.065-6.302.02m-23 3.001c.53-1.038 1.476-2.823 2.53-2.89 3.723-.235 7.482.118 11.684.381-2.333.942-5.085 1.944-7.924 2.489-1.877.36-3.88.064-6.29.02"/>
  <path fill="#575859" d="M919.017 190.58c-3.056.819-4.53-.301-4.039-3.533.264-1.734.316-3.5.39-5.713 6.31.544 2.573 5.655 3.649 9.245"/>
  <path fill="#5E5F60" d="M1758.477 181.925c.151 2.945-.111 5.89-.802 8.985-4.73-.749-1.988-4.1-2.427-6.252-.14-.69 1.818-1.81 3.23-2.733"/>
  <path fill="#555556" d="M1593.741 195.108c-1.318 1.02-3.014 2.358-4.924 2.832-1.848.459-3.916.027-6.337.044.562-.946 1.466-2.635 2.61-2.818 2.665-.424 5.446-.123 8.651-.058"/>
  <path fill="#5E5F60" d="M876.51 227.07c-.589-7.713 4.744-2.986 8.168-3.706-.066 5.925-4.858 2.77-8.168 3.706"/>
  <path fill="#555556" d="M1276.869 254.765c-1-1.506-2.312-3.395-2.79-5.476-.424-1.85.076-3.912.559-6.187 4.319 2.986 1.64 7.365 2.23 11.663"/>
  <path fill="#525354" d="M285.814 355.145c-1.344.997-3.066 2.289-4.992 2.775-1.691.428-3.61-.047-5.728-.513 2.58-4.527 6.744-1.632 10.72-2.262"/>
  <path fill="#5E5F60" d="M857.462 397.04c-.798-6.832 3.809-3.532 7.226-3.664.258 5.424-4.11 2.943-7.226 3.663m34.995-176.003c-.81-6.8 3.824-3.502 7.213-3.716.35 5.514-4.089 2.987-7.213 3.716M661.013 406.563c1.334-.402 2.954-.926 4.166-.438 1.4.565 2.441 2.022 3.714 3.495-3.193.992-6.482 1.628-7.88-3.058"/>
  <path fill="#555556" d="M220.81 365.148c-1.882 5.357-6.451 2.036-10.434 2.72 1.949-5.015 6.404-2.212 10.433-2.72"/>
  <path fill="#525354" d="M1582.134 202.21c5.162 1.758 2.227 6.024 2.182 9.733-4.347-2.262-1.602-6.093-2.182-9.732"/>
  <path fill="#575859" d="M1249.075 197.438c-1.224.425-2.443.425-3.954.425 0-2.266 0-4.135-.047-6.443 5.545-1.277 3.354 3.112 4 6.018"/>
  <path fill="#636364" d="M1374.93 247.45c-.21-8.273-.386-17.006-.3-26.046.285 8.325.309 16.956.3 26.047"/>
  <path fill="#575859" d="M1281.315 287.022c-.276-2.584-.182-5.105.274-7.824 3.996 2.811 3.902 5.69-.274 7.824"/>
  <path fill="#151515" d="M1651.862 271.613c-1.312.005-2.625.01-4.32-.598-.76-7.228-1.057-13.85-1.551-20.457-.251-3.35.73-4.958 4.396-4.593 2.796.278 5.648-.055 8.466.073 2.72.123 3.568-1.198 3.284-3.655 2.338.208 4.677.417 7.389 1.145.737 6.452 1.227 12.38 1.406 18.317.08 2.687 1.21 3.57 3.667 3.297.06.384.119.768-.371 1.426-6.584.652-12.614 1.158-18.655 1.348-2.674.084-4.095.829-3.711 3.697"/>
  <path fill="#525354" d="M1661.665 242.3c.756 2.54-.092 3.861-2.812 3.738-2.818-.128-5.67.205-8.466-.073-3.665-.365-4.647 1.242-4.396 4.593.494 6.607.79 13.229 1.208 20.253-2.059 1.23-4.157 2.049-6.894 3.119 0-2.577.038-4.66-.016-6.74-.03-1.143.227-2.844-.399-3.337-5.776-4.549-3.325-10.918-3.98-16.337l5.86-5.3c5.89 0 12.657 0 19.895.084m-9.331 29.398c-.856-2.953.565-3.698 3.24-3.782 6.04-.19 12.07-.696 18.522-1.082.513 1.451.608 2.911.74 4.948-7.42 0-14.726 0-22.502-.084m22.349-7.028c-2.542.745-3.67-.138-3.751-2.825-.18-5.937-.67-11.865-1.018-18.228 1.53-.835 3.048-1.237 4.852-1.716 0 7.832 0 15.065-.083 22.769"/>
  <path fill="#1C1C1C" d="M1199.977 239.963c.22-3.606-.791-8.176 1.042-10.52 1.518-1.94 6.382-1.37 9.785-1.698 3.297-.316 6.619-.458 9.932-.503 10.675-.146 12.675 2.981 7.716 13.225-1.19 1.983-2.212 3.52-2.352 5.134-.282 3.254-.084 6.549-.084 9.072l-26.04-3.778z"/>
  <path fill="#525354" d="M1199.63 240.156c.347 3.59.347 7.374.347 10.74l26.039 3.777c0-2.523-.198-5.818.084-9.072.14-1.614 1.163-3.15 2.103-4.785.964 8.79 1.611 17.643 2.269 26.638-5.577 1.108-9.904 1.428-14.691-.939-3.327-1.645-7.755-1.093-11.697-1.452-2.117-.194-4.249-.239-6.995-.383 0-7.576-.065-14.83.097-22.08.017-.765 1.366-1.501 2.444-2.444"/>
  <path fill="#1F1F1F" d="M508.845 250.082c.665 1.445 1.857 2.873 1.902 4.337.208 6.628.091 13.266.091 20.143-5.758 0-11.332.012-16.905-.011-1.14-.005-2.296-.305-3.418-.197-7.668.734-11.354-3.543-9.584-11.249.258-1.124.72-2.202 1.607-3.69 1.718-1.993 3.724-3.49 3.95-5.221.489-3.739 2.317-4.417 5.61-4.269 5.574.25 11.164.125 16.747.157"/>
  <path fill="#575859" d="M508.728 249.713c-5.466.337-11.056.462-16.63.212-3.293-.148-5.121.53-5.61 4.269-.226 1.73-2.232 3.228-3.783 4.883-.351-4.082-.351-8.215-.351-12.972 7.899 0 15.815-.1 23.721.143.877.027 1.693 2.016 2.653 3.465"/>
</svg>
